<svg xmlns="http://www.w3.org/2000/svg" version="1.1" xmlns:xlink="http://www.w3.org/1999/xlink" xmlns:svgjs="http://svgjs.com/svgjs" width="55" height="54"><svg width="55" height="54" viewBox="0 0 55 54" fill="none" xmlns="http://www.w3.org/2000/svg">
<g clip-path="url(#clip0_929_1889)">
<path fill-rule="evenodd" clip-rule="evenodd" d="M27.2971 30.6837C30.3134 30.927 32.1584 27.6006 34.2962 26.9787C30.577 26.1674 27.7363 27.9252 27.2092 30.305C28.5563 29.683 29.7863 28.8717 30.9577 27.9252C29.9034 28.9529 28.7321 29.8994 27.2971 30.6837ZM37.9568 34.5509C40.651 31.7924 45.6881 33.4961 48.3823 32.3333C45.5416 36.2546 41.061 36.9036 38.2203 35.0106C40.1532 34.4968 42.1445 34.2533 44.1945 34.1992C42.1739 34.0912 40.1239 34.1182 37.9568 34.5509ZM45.8344 10.7255C46.4495 10.7255 46.9473 11.1852 46.9473 11.7531C46.9473 12.3211 46.4495 12.7808 45.8344 12.7808C45.2195 12.7808 44.7217 12.3211 44.7217 11.7531C44.7509 11.1852 45.2195 10.7255 45.8344 10.7255ZM31.6605 8.1834C29.2299 6.45262 30.0499 3.66713 30.2841 0.908691C32.3634 3.47783 33.564 5.91175 32.1291 8.12931C31.8362 6.47966 31.3676 4.91114 30.782 3.3967C31.2213 4.96522 31.5141 6.56079 31.6605 8.1834ZM36.6975 12.889C40.1239 14.7821 43.111 11.9695 45.7173 9.12993C42.7303 10.401 38.1911 8.69723 36.3754 12.4022C38.1325 12.2129 39.8896 11.8343 41.6467 11.3205C40.0067 11.9695 38.3668 12.5103 36.6975 12.889ZM44.1652 28.7906C47.5037 28.4931 47.9723 25.2208 48.2065 22.1379C46.8887 24.3554 42.906 25.302 43.6967 28.6283C44.7509 27.6818 45.7466 26.6271 46.6545 25.4913C45.893 26.6271 45.1024 27.7629 44.1652 28.7906ZM43.1695 24.5447C42.2617 22.3002 44.1945 20.6505 45.6881 18.7574C45.9516 21.4618 45.6295 23.7064 43.5502 24.707C44.1359 23.4089 44.546 22.0838 44.8681 20.7586C44.3995 22.0567 43.8431 23.3277 43.1695 24.5447ZM45.9809 31.0081C47.0644 27.9522 51.6915 27.6277 53.39 25.8428C52.6579 29.8724 49.3487 31.8465 46.3616 31.2786C47.7087 30.2509 49.1729 29.3855 50.7836 28.6824C49.1437 29.2503 47.533 29.9534 45.9809 31.0081ZM37.0782 8.69723C36.2876 6.3174 39.0404 4.23505 39.2453 2.39609C40.7096 5.23566 39.5968 7.83184 37.4589 8.72427C37.8104 7.53436 38.3375 6.37149 38.9817 5.2627C38.2203 6.3174 37.5468 7.42619 37.0782 8.69723ZM47.7673 18.1625C48.3823 18.1625 48.8801 18.6222 48.8801 19.1901C48.8801 19.7581 48.3823 20.2178 47.7673 20.2178C47.1523 20.2178 46.6545 19.7581 46.6545 19.1901C46.6837 18.6222 47.1523 18.1625 47.7673 18.1625ZM38.4253 19.0279C38.8646 15.5393 41.9981 15.1877 45.3366 13.8085C44.546 17.2971 42.1739 19.3794 38.8939 19.2442C40.1239 17.865 41.5588 16.675 43.1403 15.6204C41.471 16.5669 39.8603 17.6216 38.4253 19.0279ZM29.9913 20.4612C31.397 16.9996 36.7561 16.8644 38.806 14.8902C37.7225 19.4606 33.8276 21.57 30.4306 20.7856C32.0119 19.6499 33.7691 18.7574 35.6433 18.0273C33.7105 18.5952 31.807 19.3253 29.9913 20.4612ZM30.1084 34.7131C34.2962 33.1176 38.5425 37.147 41.881 37.1741C36.9319 39.8785 32.0412 38.4992 30.1377 35.281C32.3634 35.6326 34.5305 36.2816 36.639 37.147C34.6476 36.1194 32.5098 35.254 30.1084 34.7131ZM29.9034 31.4138C32.4805 27.168 36.6683 28.2498 41.7346 28.0875C38.7475 32.1981 34.5305 33.6855 30.372 31.9276C32.7148 30.7648 35.2333 29.9535 37.869 29.3585C35.204 29.7371 32.5684 30.305 29.9034 31.4138ZM49.4073 26.2485C49.1144 23.3007 52.0136 21.9215 54.4736 20.1096C53.8293 23.4089 52.6579 26.0051 49.8172 26.546C50.9886 25.1667 51.9257 23.7064 52.8043 22.219C51.75 23.6523 50.6372 25.0044 49.4073 26.2485ZM29.3177 23.7605C31.6605 26.8434 36.9611 25.7077 39.5089 27.168C37.1954 22.9221 32.7733 21.7592 29.6398 23.3277C31.5141 24.058 33.4762 24.5447 35.5261 24.8152C33.5055 24.707 31.4262 24.4366 29.3177 23.7605ZM48.7337 22.7599C48.1187 20.5423 50.7836 18.7304 51.0472 17.0807C52.2479 19.7581 51.0765 22.0838 49.0558 22.7869C49.4365 21.7051 49.9637 20.6776 50.6372 19.704C49.9051 20.5964 49.2315 21.597 48.7337 22.7599ZM35.3797 13.6732C35.9947 13.6732 36.4925 14.1329 36.4925 14.7009C36.4925 15.2688 35.9947 15.7285 35.3797 15.7285C34.7647 15.7285 34.2669 15.2688 34.2669 14.7009C34.2669 14.1329 34.7647 13.6732 35.3797 13.6732ZM41.3831 26.9246C42.7888 25.0315 41.4417 23.463 40.5339 21.3266C39.0404 23.49 39.1575 25.6806 41.0025 27.1139C41.0317 26.0321 40.9439 24.8964 40.7389 23.7605C41.061 24.7882 41.2953 25.8698 41.3831 26.9246ZM26.6821 28.0604C26.0671 30.7918 26.0085 32.9283 29.2885 33.1176C33.3005 33.2799 37.0197 32.9282 40.651 31.6842C42.2031 29.5748 42.5838 27.6547 43.1695 25.0585C43.0524 27.4114 42.6424 29.6019 41.7638 31.2515C44.341 30.2239 46.8887 28.7095 49.4658 26.5731C44.3116 32.2522 36.5511 33.9559 29.4935 34.1182C27.7071 34.2804 27.3264 38.0124 29.8156 41.5822C31.397 43.8538 28.7027 51.2638 31.2505 51.6154C29.9034 52.67 26.4771 52.4808 25.8328 51.2908C25.8621 47.8022 27.8828 47.7481 26.9164 43.6916C26.5942 41.2577 24.9543 36.7413 24.5736 34.4156C24.2221 32.3333 24.4564 30.1698 25.1592 27.9252C26.3306 24.085 28.0585 20.1907 30.4599 16.675C31.8362 13.8626 31.9534 10.8877 31.9534 8.58906C32.3634 10.9689 32.3341 13.2135 31.9534 14.6468C34.2083 11.8072 36.5511 10.0494 39.3039 8.50793C40.4461 6.7501 43.4331 6.66897 44.6631 5.56018C43.9017 8.37271 41.4417 9.61668 39.3625 9.07584C40.3582 8.39975 41.471 7.88592 42.6424 7.45323C40.0067 8.15636 38.7768 8.96767 36.844 10.6444C33.4469 13.5921 30.7527 17.1889 28.9663 21.2454C34.0033 22.1649 42.0567 20.0284 45.6587 16.9455C45.8344 14.9172 48.6165 13.9437 49.2901 12.5374C49.6415 15.2147 47.9429 17.0266 45.9223 17.1889C46.5666 16.2965 47.328 15.5122 48.2065 14.7821C47.4451 15.2959 46.713 15.8367 46.098 16.5669C45.6587 17.0807 45.2195 17.5404 44.6045 18.0543C40.9439 21.0561 34.5011 22.6246 28.5856 22.1108C27.7949 24.0039 27.1799 25.978 26.6821 28.0604ZM33.7105 11.4557C31.9827 8.67019 34.8819 5.28974 34.5598 2.93696C37.2539 6.15514 36.639 9.72487 34.1791 11.3746C34.2376 9.77896 34.5598 8.1834 35.0868 6.64192C34.4426 8.12932 33.9155 9.69787 33.7105 11.4557ZM28.0878 16.9185C25.335 13.2946 28.8199 8.31862 28.0878 5.10044C32.2463 9.18402 31.8656 14.16 28.7321 16.7562C28.6148 14.5386 28.8199 12.3211 29.3177 10.1305C28.6148 12.267 28.117 14.4846 28.0878 16.9185Z" fill="#007A82"></path>
<path d="M4.39727 20.2452C4.28012 19.8126 3.98728 18.866 3.60657 18.5955C3.22587 18.3251 2.84516 18.7578 2.72802 19.0824C2.55231 19.6232 2.5816 20.2452 2.72802 20.7861C2.87445 21.354 3.05015 21.8678 3.34301 22.3817C3.51871 22.6791 3.84085 23.0307 4.22155 22.8143C4.77797 22.4358 4.51441 20.7861 4.39727 20.2452ZM16.492 26.8979C16.5212 26.8709 16.5212 26.8709 16.492 26.8438C16.1992 25.9784 15.9356 25.086 15.6427 24.2206C15.5549 23.9502 15.4962 23.7068 15.4084 23.5175C15.3499 23.4093 15.2913 23.4634 15.262 23.5716C15.057 24.2747 14.9984 25.0589 14.9984 25.8162C15.0277 26.4382 15.0863 27.0872 15.2327 27.6551C15.262 27.7904 15.3791 27.7904 15.467 27.7092L16.492 26.8979ZM8.35074 10.2391C8.4386 9.80637 8.29216 9.42781 7.76504 9.37371C7.29648 9.34662 6.85721 9.59009 6.65221 9.99574C6.4765 10.3473 6.56435 10.7259 6.76935 11.0504C6.85721 11.2127 7.00363 11.375 7.15006 11.5372C7.23791 11.6183 7.35505 11.5643 7.47219 11.4561C7.91146 11.1586 8.26288 10.7259 8.35074 10.2391ZM6.82792 15.4856C7.29648 14.9447 7.2672 14.2686 7.00363 13.6466C6.88649 13.322 6.68149 13.0246 6.41793 12.7271C6.38865 12.7001 6.33007 12.673 6.2715 12.7001C6.06651 12.8082 5.86151 12.9705 5.68581 13.1328C5.07082 13.6195 4.69011 14.4579 4.74868 15.2151C4.77797 15.7019 5.12939 16.0264 5.65652 16.0805C6.15436 16.1075 6.53507 15.8371 6.82792 15.4856ZM9.58072 8.50832H7.38433C7.17934 8.50832 7.0622 8.40014 7.17934 8.23788C7.61862 7.53475 8.40931 6.83162 9.05357 6.26371C9.66861 5.72283 10.3714 5.12787 11.0743 4.69517C11.5428 4.3977 11.8649 4.26248 12.3921 4.28952C12.48 4.28952 12.5678 4.34361 12.5385 4.42474C12.4506 4.61404 12.3335 4.85744 12.1871 5.12787C11.7478 6.0744 11.3378 7.04796 10.8985 7.99449C10.8693 8.02154 10.8693 8.04857 10.9278 8.04857C11.1035 8.04857 11.3671 8.04857 11.5135 7.99449C11.5721 7.96744 11.6307 7.96744 11.6307 8.04857C11.6307 8.31901 11.2792 8.53536 10.9571 8.53536H10.7228C10.6936 8.53536 10.6643 8.5624 10.6643 8.58945L10.3128 9.37371C9.7564 10.6177 8.49716 11.5102 7.58933 11.9969C7.56005 12.024 7.56005 12.0781 7.58933 12.1051C8.02861 12.6189 8.55573 13.4302 8.52645 14.1063C8.49716 14.6743 8.26288 15.1881 7.88217 15.6208C7.50147 16.0534 6.79864 16.4321 6.21293 16.5132C5.65652 16.5944 4.9244 16.5944 4.42655 16.378C3.63586 15.9994 3.37229 15.2151 3.60657 14.4579C3.84085 13.7548 4.45584 13.2139 5.12939 12.8353C5.39295 12.673 5.65652 12.5648 5.94937 12.4296C6.06651 12.3756 6.12508 12.3485 6.06651 12.2674C5.94937 12.1051 5.80294 11.9699 5.68581 11.8076C5.07082 10.8611 5.39295 9.96865 6.38865 9.37371C7.09148 8.94102 8.73145 8.69763 9.25857 9.4819C9.3757 9.21145 9.52215 8.91397 9.63928 8.64353C9.58072 8.5624 9.60995 8.50832 9.58072 8.50832ZM9.7564 8.07562C9.78573 8.07562 9.78573 8.07562 9.81496 8.04857C10.1664 7.29136 10.5178 6.53414 10.8693 5.77692C10.9864 5.56057 11.0743 5.34422 11.1621 5.15492C11.1914 5.04674 11.1035 5.07379 11.045 5.10083C10.4007 5.53353 9.81497 6.10144 9.31714 6.66936C9.02429 7.02093 8.73145 7.42658 8.46788 7.88631C8.40931 7.99449 8.46788 8.04857 8.6143 8.04857H9.7564V8.07562ZM19.274 19.6503C19.5376 19.1635 19.684 18.7849 19.7426 18.5144C19.8011 18.2711 19.9183 17.7031 19.5376 17.622C19.274 17.5679 19.0105 17.622 18.8055 17.7572C18.3077 18.0818 17.927 18.5685 17.6341 19.0553C17.3998 19.488 17.224 19.8666 17.1362 20.2182C17.0484 20.4616 16.9606 20.7861 16.9898 21.0295C17.0484 21.4893 17.5169 21.5974 17.927 21.354C18.4834 21.0295 18.9812 20.1911 19.274 19.6503ZM2.20089 22.8143C2.49374 24.491 2.81588 26.1677 3.10872 27.8444C3.46014 27.1954 4.10442 26.4923 4.63154 25.9784C5.15868 25.4646 5.68581 24.8427 6.03723 24.2206C6.18365 23.9502 6.50578 23.3282 6.35936 23.0037C6.15436 22.5439 5.62724 22.6521 5.3051 22.9766C4.9244 23.3552 4.7194 23.842 4.60226 24.3288C4.51441 24.6263 4.25084 24.3288 4.16299 24.1665C4.04585 23.9502 4.1337 23.5716 4.22155 23.3552C3.78228 23.5175 3.22587 23.5445 2.81588 23.3012C2.5816 23.166 2.3766 23.0037 2.20089 22.8143ZM11.5721 32.1714C11.8649 31.9551 11.982 31.6847 11.7185 31.4142C11.5428 31.2519 11.3085 31.1708 11.0743 31.1708C10.8107 31.1708 10.5471 31.279 10.4007 31.4954C10.225 31.7657 10.1664 32.0091 10.1664 32.3067C10.1664 32.4148 10.2542 32.4148 10.4007 32.4148C10.7814 32.4689 11.25 32.4148 11.5721 32.1714ZM7.76504 34.416C8.64359 34.2808 9.02429 33.4424 9.08286 32.7123C9.08286 32.577 9.08286 32.577 8.93644 32.577C8.26288 32.523 7.79432 32.55 7.20863 32.9016C6.85721 33.118 6.53507 33.4154 6.59364 33.8481C6.65221 34.3078 7.20863 34.5242 7.76504 34.416ZM18.2783 7.77814C18.3662 7.39953 18.5126 6.83162 18.3662 6.45301C18.249 6.15553 17.9562 6.12848 17.6926 6.29074C17.2827 6.56118 17.0191 7.02093 16.8141 7.42658C16.6384 7.77814 16.4626 8.21084 16.3163 8.67058C16.1698 9.13032 15.9941 9.67118 15.9356 10.158C15.9063 10.4014 15.8477 11.1315 16.287 11.1045C16.8433 11.0774 17.2827 10.2661 17.4876 9.83346C17.7805 9.23849 18.1027 8.45423 18.2783 7.77814ZM15.2913 21.327C15.4377 21.0565 15.6134 20.705 15.672 20.4075C15.7012 20.1911 15.7306 19.9207 15.4377 19.8396C15.2034 19.7855 14.9398 19.9478 14.7348 20.0829C14.1784 20.4616 13.6221 21.2729 13.2706 21.8137C13.007 22.2194 12.7434 22.6521 12.5678 23.0848C12.48 23.3012 12.2456 23.9502 12.6556 24.0043C13.1828 24.0854 13.7684 23.4093 14.0613 23.0848C14.5006 22.5709 14.9692 21.8949 15.2913 21.327ZM13.2999 36.2009C13.6806 36.3091 14.3249 36.4714 14.7348 36.3632C14.9106 36.3091 15.0277 36.2279 15.0277 36.0657C15.057 35.7142 14.5299 35.3085 14.237 35.1462C13.6513 34.7947 13.0656 34.5512 12.4214 34.3349C11.8064 34.1186 11.0156 33.8211 10.3714 33.8211C10.1371 33.8211 9.78573 33.8481 9.81496 34.1186C9.81496 34.2267 9.84429 34.3349 9.93209 34.4431C10.1957 34.8217 10.6936 35.1191 11.1328 35.3085C11.7185 35.6601 12.5971 36.0116 13.2999 36.2009ZM17.3413 15.134C17.3413 14.8095 17.0191 14.6202 16.697 14.6472C16.3163 14.6743 15.9648 14.8636 15.877 15.2151C15.8184 15.5126 15.877 15.756 15.9648 16.0535C15.9941 16.1616 16.0234 16.1346 16.1113 16.1075C16.4041 16.0264 16.6384 15.9723 16.902 15.783C17.0777 15.6749 17.3413 15.3774 17.3413 15.134ZM15.1742 17.4867C15.1742 17.2434 15.1449 16.9729 15.057 16.6754C15.0277 16.5944 14.9692 16.6214 14.9106 16.6214C14.7348 16.6484 14.5591 16.7025 14.4127 16.7566C13.8271 16.9188 13.2706 17.4057 13.0949 17.9465C12.9192 18.4603 13.2999 18.866 13.8563 18.8931C14.6763 18.9201 15.1449 18.1359 15.1742 17.4867ZM24.0182 8.04857C24.2232 8.42719 24.7796 8.29197 25.0725 8.04857C25.7168 7.50771 26.1267 6.39892 26.3025 5.61466C26.361 5.29013 26.4488 4.74927 26.2146 4.50588C25.9803 4.26248 25.5703 4.42474 25.3653 4.58701C24.926 4.91153 24.5161 5.53353 24.2232 6.15553C23.901 6.8857 23.7546 7.64292 24.0182 8.04857ZM5.86151 31.4954C6.33007 31.4683 7.2672 31.4142 7.58933 31.0356C7.88217 30.7111 7.56005 30.2784 7.20863 30.1431C6.38865 29.7646 5.18796 29.8187 4.30941 29.9539C4.04585 30.008 3.69443 30.089 3.46014 30.2243C2.99159 30.4947 3.1673 30.9003 3.60657 31.1438C4.25084 31.4683 5.18796 31.4954 5.86151 31.4954ZM22.8761 9.96865C22.9932 9.80637 23.0811 9.59009 22.964 9.40071C22.8468 9.21145 22.6125 9.13032 22.4076 9.13032C22.0268 9.13032 21.6754 9.29258 21.5875 9.67118C21.529 9.94165 21.5583 10.185 21.6168 10.4825C21.6461 10.5907 21.734 10.5366 21.8511 10.5366C22.2611 10.4825 22.6418 10.2932 22.8761 9.96865ZM20.5919 12.5378C20.8261 12.051 20.8261 11.5913 20.709 11.1045C20.709 11.0774 20.6798 11.0234 20.6211 11.0504C20.4454 11.0774 20.2697 11.1045 20.094 11.1586C19.684 11.2668 19.3033 11.5102 19.0397 11.8076C18.6884 12.2133 18.4834 12.7812 19.0691 13.1328C19.5669 13.4032 20.3576 12.9976 20.5919 12.5378ZM21.0897 22.2735L21.5875 20.4075C21.7925 19.6232 22.4661 17.4597 22.7296 16.7836C22.9346 16.2698 23.1396 15.729 23.2861 15.1881C23.3447 14.9717 23.4032 14.8095 23.4032 14.6743C23.4326 14.512 23.3153 14.5661 23.1982 14.5931C22.9054 14.6472 22.5833 14.7825 22.3197 14.8906C21.8804 15.0528 21.6168 15.0528 21.4118 14.7554C21.2068 14.8636 21.0018 14.9717 20.7969 15.1069C20.3576 15.4044 19.9768 15.729 19.6548 16.0264C19.3327 16.351 19.0397 16.7295 18.7762 17.0811C18.6884 17.2434 18.6884 17.3516 18.8933 17.2164C19.1862 17.0811 19.5083 17.027 19.8305 17C20.299 16.9729 20.7383 17.1623 20.9726 17.5138C21.3533 18.0818 21.0897 18.9201 20.8554 19.4609C20.4162 20.4075 19.7719 21.327 18.7176 21.7596C18.0148 22.0571 17.3998 22.0842 16.7262 21.7596C16.0234 21.4352 15.9356 21.8137 16.1992 22.7332C16.5212 23.842 16.9898 24.9779 17.3413 26.0866C17.3413 26.1137 17.3705 26.1407 17.3998 26.1137C17.5755 25.9784 17.7512 25.8432 17.8683 25.654C17.9562 25.5187 18.0148 25.654 18.0441 25.7351C18.1612 26.1407 17.9855 26.33 17.6926 26.5734C17.5755 26.6546 17.5755 26.6816 17.6341 26.8168C17.7512 27.1413 17.8683 27.4388 17.9562 27.7633C18.1905 27.3036 18.454 26.8979 18.7469 26.4653C19.0983 25.9514 19.3619 25.4917 19.5376 25.113C19.8011 24.5722 20.1526 23.7338 20.1233 23.166C20.094 22.3276 19.274 22.1653 18.8055 22.8955C18.454 23.4093 18.3369 23.9773 18.3077 24.5992C18.3077 24.9508 18.0441 24.8156 17.8391 24.5722C17.5462 24.1935 17.5462 23.7068 17.722 23.2741C18.0148 22.5439 18.6884 22.1112 19.4498 21.9489C19.9768 21.7867 20.7676 21.8408 21.0897 22.2735ZM23.2568 24.6533C23.2568 24.1936 23.1104 23.6527 22.5539 23.5716C21.2361 23.3822 20.0647 25.4917 19.3912 26.4923C19.1276 26.8979 18.8347 27.3848 18.6884 27.8444C18.5419 28.2501 18.5712 28.3313 18.952 28.2231C21.2947 27.5469 22.8468 27.2495 23.2568 24.6533ZM24.6039 20.4345C24.194 20.5968 22.7296 20.732 22.2318 20.7861C22.0854 20.8132 22.0561 20.9483 22.0268 21.0565C21.939 21.4081 21.7633 22.1112 21.734 22.2194C21.6754 22.4087 21.734 22.5168 22.0854 22.3546C23.2861 21.7326 23.6375 21.2188 24.6039 20.4345ZM20.1818 4.45178C17.8976 5.26309 17.1948 5.61466 15.9356 6.66936C15.0277 7.42658 14.032 7.94041 13.1242 8.75171C12.8313 9.02215 12.5385 9.29258 12.3042 9.61709C12.2164 9.72527 11.8942 10.1309 12.2456 10.1309C13.1828 10.1309 14.1199 10.158 15.057 10.0498C15.057 9.77937 15.0863 9.5089 15.1449 9.23849C15.2913 8.5624 15.5256 7.88631 15.9063 7.29136C16.4626 6.453 17.0484 5.91214 18.1319 5.85805C18.6884 5.83101 19.0691 6.0744 19.2154 6.53414C19.3619 6.93979 19.3619 7.39953 19.3033 7.83223C19.6548 7.50771 20.0062 7.18319 20.3869 6.8857C20.9726 6.42597 21.5875 5.88509 22.0268 5.29013C22.2318 5.0197 22.6125 4.42474 22.5247 4.10022C22.3782 3.61343 21.8219 3.66752 21.4704 3.93795C21.0311 4.28952 20.7676 4.72222 20.5919 5.209C20.5333 5.37126 20.4162 5.39831 20.299 5.209C20.1233 4.99266 20.094 4.72222 20.1818 4.45178ZM8.67287 23.8961C9.69784 23.3552 10.6936 22.4628 11.1328 21.4622C11.5721 20.4345 11.8942 18.9742 10.3128 18.7308C9.99074 18.6767 9.66861 18.7037 9.28786 18.7849C8.84858 18.9201 9.05357 18.3792 9.25857 18.3251C10.02 18.0818 10.4886 17.8113 10.8693 17.4327C11.5428 16.7566 11.9235 16.0535 11.9528 15.1069C11.9235 14.512 11.6307 14.0523 10.9278 14.1333C9.84429 14.2415 9.28786 15.3233 9.20001 16.2157C9.11215 17.1082 8.64359 17.2705 7.88217 17.5408C7.50147 17.6761 7.09148 17.7842 6.71077 17.9195C6.59364 17.9465 6.59364 18.1359 6.59364 18.217C6.59364 18.5415 6.56435 18.866 6.56435 19.1905C6.56435 19.2987 6.59364 19.3257 6.71077 19.2446C6.94506 19.0824 7.15006 18.9472 7.35505 18.8931C8.29216 18.5955 8.8193 18.9201 9.14144 19.7855C9.34647 20.3263 9.34647 21.0836 9.17072 21.6245C8.99501 22.2465 8.64359 22.7873 8.14574 23.2741C8.29216 23.4634 8.46788 23.6797 8.67287 23.8961ZM18.6005 15.2421C18.3955 15.1881 18.2198 15.1069 18.0148 15.0528C18.3077 15.9723 16.7848 16.378 16.0819 16.4592C16.0527 16.4592 16.0234 16.5132 16.0527 16.5403C16.1992 16.9729 16.287 17.7572 16.0819 18.1899C15.5549 19.1905 14.3249 19.5421 13.2414 19.1364C13.2999 19.5691 13.2414 20.0559 13.1242 20.4886C13.7684 19.8396 14.9692 19.1364 15.9356 19.6232C16.3163 18.1359 17.4584 16.5944 18.6884 15.6208C18.8055 15.4856 18.7762 15.2962 18.6005 15.2421ZM18.1612 11.4561C18.6884 10.8611 19.5669 10.7259 20.3576 10.7259C20.504 10.7259 20.6211 10.7529 20.5919 10.6448C20.504 10.3743 20.4748 10.1039 20.504 9.83346C20.5333 9.59009 20.6798 9.37371 20.8554 9.21145H19.0397C18.952 9.21145 18.8641 9.26554 18.8347 9.34671C18.7176 9.56299 18.6005 9.77937 18.4834 9.99574C18.2198 10.4014 17.927 10.7259 17.6048 10.9693C17.5169 11.0504 17.4291 11.1045 17.3413 11.1586C17.5462 11.1586 18.0441 11.2668 18.1612 11.4561ZM15.0863 35.011C15.3499 35.3896 15.5256 36.1468 15.3205 36.5796C17.2241 37.0393 18.249 38.0128 21.2068 36.282L21.0311 35.8764C17.9855 36.6877 16.3455 36.1739 15.0863 35.011ZM9.81496 30.089C9.22929 29.9539 8.38003 29.7916 7.76504 29.8187C7.61862 29.8187 7.61862 29.8728 7.76504 29.9268C8.26288 30.1431 8.6143 30.7381 8.58502 31.2249C8.55573 31.5224 8.38003 31.7928 8.14574 32.0091C8.43859 32.0632 8.73145 32.1173 8.96572 32.1714C9.05357 32.1985 9.11215 32.2255 9.11215 32.1444C9.11215 31.9821 9.14144 31.8469 9.17072 31.6847C9.28786 31.1438 9.60995 30.7922 10.1957 30.63C10.8107 30.4677 11.4257 30.6841 11.9235 31.0356C12.2456 31.2519 12.48 31.5495 12.5092 31.928C12.5385 32.577 11.7186 32.7664 11.1914 32.7934C10.9278 32.8205 10.5764 32.7664 10.1664 32.7123C10.1371 32.7123 10.1079 32.7123 10.1079 32.7664C10.1079 32.8745 10.0785 32.9827 10.0785 33.0909C10.1371 33.0639 10.1957 33.0368 10.2836 33.0368C10.7521 32.9016 11.455 33.0098 11.9528 33.118C12.6849 33.2802 13.417 33.5777 14.032 33.9563C14.237 34.0915 14.4127 34.2267 14.5885 34.3619C14.1199 33.794 13.7099 33.145 13.2414 32.4419C12.2749 31.0626 11.6013 30.4947 9.81496 30.089ZM11.8357 22.598C11.1035 23.3282 9.99074 23.9773 8.99501 24.3017C9.96142 25.4376 10.9278 26.5464 11.8942 27.6551C12.2456 28.0608 12.5971 28.4664 12.9192 28.8451C14.1784 30.3324 13.7392 31.4142 14.647 32.0903C15.1155 32.4689 15.9063 32.8205 16.287 32.1444C16.3748 32.0091 16.4041 31.8469 16.4041 31.6576C16.4041 31.4142 16.6677 31.6035 16.6677 31.7117C16.6677 32.0903 16.7555 32.3878 16.902 32.6041C17.1655 33.0368 17.4876 33.3343 18.0148 33.4695C18.3369 33.5506 18.6298 33.4695 18.7176 33.145C18.7469 32.9286 18.7176 32.7393 18.6005 32.577C18.3662 32.2526 18.0441 32.0632 17.6341 31.928C17.4291 31.8469 17.4876 31.7928 17.6634 31.6847C18.0148 31.4954 18.4248 31.6847 18.6884 31.928C19.0691 32.3067 19.0983 32.8205 19.0397 33.3073C18.952 33.7399 18.7176 34.1997 18.1612 34.1997C17.6634 34.1997 17.3119 33.8752 17.0484 33.4965C16.9312 33.3343 16.8433 33.0909 16.7555 32.7934C16.7555 32.7393 16.697 32.7123 16.6677 32.7664C16.6091 32.9557 16.492 33.0909 16.3748 33.1991C16.1405 33.3884 15.877 33.4424 15.5841 33.3884C14.9984 33.2802 14.442 32.8745 14.0906 32.4419C13.4464 31.6306 13.417 31.2519 12.5092 30.2243C12.2164 29.8998 11.8942 29.5211 11.5428 29.1155C10.5178 27.9256 9.43426 26.7627 8.40931 25.5728C8.38003 25.5458 8.35074 25.5187 8.32146 25.5187C8.26288 25.5187 8.2336 25.5728 8.2336 25.681C8.2336 25.8433 8.2336 26.0325 8.2336 26.2218C8.2336 26.5194 8.26288 26.8979 8.29216 27.3307C8.35074 28.0067 8.02861 27.6551 7.85289 27.3036C7.53076 26.6005 7.56005 24.3558 7.76504 23.5175L7.73575 23.5445C7.0622 24.0313 5.80294 25.3294 5.15868 25.9784C4.86583 26.2759 4.54369 26.6546 4.33869 27.0061C4.28012 27.0872 4.10442 27.4118 4.36798 27.3847C4.95368 27.3307 6.24222 27.2225 6.76935 26.979C6.88649 26.925 6.91577 27.0061 6.88649 27.0872C6.82792 27.4929 6.59364 27.9797 6.03723 28.0608L3.22587 28.3853C3.25515 28.6287 3.31372 28.8451 3.34301 29.0615C3.78228 28.791 4.3387 28.6287 4.86583 28.5476C6.53507 28.3042 8.38003 28.3583 9.93209 28.9803C12.1871 29.8728 12.4506 30.7381 13.5927 32.1444C15.2034 34.1456 17.7512 35.5248 19.9183 34.4701C20.4747 34.1997 20.6504 33.9834 20.5919 33.0639C20.5625 32.6852 20.5333 32.3067 20.4747 32.1173C17.4291 31.3872 11.4257 29.6834 11.5721 24.4369C11.5721 23.9773 11.6599 23.1389 11.8357 22.598ZM14.3249 28.3042C14.2663 27.4659 14.3249 26.6005 14.4127 25.7621C14.5006 24.9779 14.647 24.1665 14.8227 23.4634C14.1784 24.0313 13.007 24.6533 12.1285 24.1125C11.9528 25.8433 12.9192 27.2495 14.3249 28.3042ZM21.7046 28.3313C20.4162 28.9262 18.9812 29.2507 17.6048 29.6564C17.4291 29.6834 17.4291 29.5752 17.3413 29.3589C17.1655 28.7098 16.902 28.0608 16.697 27.4118H16.6677L16.5799 27.4929L14.9692 28.7369C16.6091 29.7375 18.7176 30.3324 20.3869 30.4677C21.1776 30.5218 21.8804 30.1431 21.7633 29.0885C21.7047 28.7639 21.7046 28.5205 21.7046 28.3313ZM29.2016 4.42474C29.2016 4.50587 29.2016 4.8304 29.1724 4.88448C29.0845 4.99266 28.9967 5.04674 28.9674 4.88448C28.938 4.42474 28.7917 3.99205 28.5281 3.58639C28.1766 3.01847 27.7081 2.53169 26.976 2.36943C26.566 2.26125 26.2439 2.42352 26.0681 2.77508C25.9803 2.93734 25.9218 3.0996 25.9218 3.31596C25.9218 3.55935 25.6289 3.37004 25.6289 3.23483C25.6289 2.82917 25.5411 2.50465 25.3946 2.26125C25.1017 1.80152 24.7503 1.44995 24.194 1.28769C23.8425 1.17951 23.4911 1.26064 23.4326 1.63926C23.3447 2.07195 23.5789 2.42352 23.9596 2.66691C24.1354 2.80213 24.3696 2.88326 24.6039 2.96439C24.8089 3.04552 24.7503 3.12665 24.5747 3.20778C24.3989 3.28891 24.2232 3.31596 24.0182 3.26187C23.0518 2.96439 23.1396 2.31535 21.6168 2.2883C21.0311 2.2883 20.4454 2.39648 19.9768 2.69395C19.5083 2.96439 19.3619 3.31596 19.7426 3.72161C19.889 3.88387 20.094 4.01909 20.3576 4.18135C20.5333 3.85682 20.7969 3.66752 21.1483 3.50526C22.2904 2.99144 24.2817 3.50526 23.3447 5.04674C23.0225 5.58762 22.4076 5.99327 21.8511 6.34484C21.2654 6.72344 20.6798 7.18319 20.1818 7.69701C20.0647 7.83223 19.7719 8.1297 19.7426 8.26493C19.7426 8.34606 19.8011 8.34606 19.8597 8.3731C20.3869 8.3731 21.939 8.40014 22.3197 8.23788C22.4368 8.1838 22.4661 8.29197 22.4368 8.3731C22.3783 8.53536 22.3197 8.67058 22.2318 8.80579C22.6125 8.85989 23.0811 8.9951 23.3739 9.23849C23.696 9.5089 23.7546 9.80637 23.5789 10.158C23.4326 10.4555 22.9932 10.6448 22.7004 10.7799C22.4661 10.8611 22.144 10.9422 21.734 10.9693C21.7047 10.9693 21.6754 10.9963 21.7046 11.0504C21.7925 11.4561 21.8219 11.8076 21.7925 12.2133C22.4368 11.9428 23.0225 11.5372 23.5203 11.0774C24.0767 10.5637 24.5453 9.94165 24.8968 9.26554C25.0139 9.07623 25.1017 8.88693 25.1896 8.67058C25.2482 8.53537 25.1896 8.53536 25.0725 8.6165C24.6625 8.9951 23.9889 9.04919 23.4618 8.85989C22.5539 8.50832 22.5539 7.29136 22.7296 6.56118C22.9054 5.83101 23.3153 5.07379 23.9596 4.58701C24.4868 4.20839 25.0431 3.99205 25.7168 3.99205C26.3903 3.965 27.0931 4.18135 27.3567 4.7763C27.7959 5.72283 27.4152 6.91275 27.0639 7.83223C26.8882 8.31901 26.6246 8.83284 26.3317 9.31962C26.0096 9.83346 25.6582 10.3202 25.2189 10.7799C24.3403 11.6994 21.9097 12.9164 20.709 13.4573C20.1233 13.7007 19.3912 13.6736 18.8055 13.4302L19.274 14.8906C19.3326 15.0258 19.479 15.0799 19.6255 15.0258C19.889 14.8906 20.1233 14.7554 20.4162 14.6472C21.3533 14.1874 23.1104 13.7007 24.1354 13.3761C24.4868 13.268 24.3989 13.4302 24.3403 13.7277C24.2232 14.1063 24.1354 14.4308 23.9889 14.8095C23.696 15.5397 23.4618 16.2969 23.3153 17.0541C23.1982 17.649 23.0811 18.5685 23.169 19.1905C23.1982 19.2987 23.3153 19.3798 23.4326 19.3798L25.3067 19.1094C25.3946 19.1094 25.4532 19.1094 25.4238 19.2175C25.3653 19.4609 25.2775 19.8126 25.1604 20.0559C25.6289 19.6773 26.1267 19.2175 26.4782 18.7308C26.6246 18.5415 26.8589 18.1629 26.9174 17.9195C27.1517 17.2164 26.5074 16.8918 25.8924 17.3516C25.6874 17.5138 25.5117 17.6761 25.3946 17.8654C25.2775 18.0547 25.1603 18.244 25.0725 18.4603C24.9554 18.7308 24.8968 18.9742 24.6624 18.5415C24.2525 17.8383 24.6039 16.2698 24.6918 15.756C24.8382 14.8906 24.9846 14.0252 25.131 13.1869C25.1896 12.7812 25.2482 12.4026 25.3361 12.0781C25.3653 11.9428 25.2482 11.9969 25.1604 12.051C25.0431 12.1322 24.926 12.2404 24.8089 12.3485C24.5747 12.5378 24.3111 12.8082 23.9596 13.1328C23.7546 13.322 23.7839 12.9705 23.8425 12.8623C23.9596 12.5648 24.3403 12.1863 24.5161 12.024C24.7796 11.7806 25.0725 11.5643 25.3067 11.3479C25.6289 11.0774 26.2146 10.6718 26.5953 10.5366C26.6832 10.5096 26.8003 10.5366 26.771 10.6448C26.7124 10.9152 26.6538 11.2127 26.5953 11.5372C26.2731 13.1598 25.9803 14.7825 25.6582 16.4051C25.6289 16.5944 25.5996 16.7566 25.5411 16.9459C26.4196 16.5403 28.1474 16.7025 27.9717 17.9195C27.8545 18.4874 27.4738 18.8931 27.0053 19.2716C26.8003 19.4339 26.566 19.5962 26.2439 19.7855C25.5996 20.2452 24.7503 20.8402 24.2817 21.4622C24.2232 21.5433 23.9889 21.8408 24.2525 21.8408C24.8382 21.8408 26.156 21.8949 26.7417 21.7055C26.8589 21.6785 26.8882 21.7596 26.8589 21.8408C26.8003 22.0301 26.6246 22.3546 26.4782 22.4898C26.3317 22.625 26.0975 22.7062 25.8924 22.7062H24.3696C25.0725 23.5986 24.8382 25.1401 24.3403 26.0596C23.8425 26.979 23.2568 27.0602 23.3739 28.2231C23.4326 28.8451 23.6668 29.5211 23.7546 30.2784C23.9596 31.8198 23.4618 32.7123 23.7546 34.8488C24.0767 37.3909 26.8295 44.4762 25.6582 47.0183C24.8382 48.7491 24.6918 50.2094 24.5747 51.3182C24.8675 51.3182 25.1896 51.3182 25.4824 51.3182C30.6073 51.3182 35.1758 52.1566 38.1336 53.4818H12.8313C14.237 52.8597 16.0234 52.3189 18.0441 51.9673C21.3826 51.2371 20.5333 50.9937 21.4412 48.3976C22.4954 45.4227 20.7383 41.9612 21.2947 41.1499C22.0854 39.987 21.9975 38.7971 21.6754 37.6883C19.0691 39.0676 17.2827 38.4725 15.877 37.8776C14.852 37.4449 13.6221 37.472 12.2749 37.0122C11.7478 36.8229 11.2792 36.6066 10.8693 36.3361C10.4592 36.0657 10.1079 35.7683 9.87353 35.4707C9.69784 35.2544 9.58072 35.0381 9.52215 34.8217C9.49283 34.7406 9.46359 34.6324 9.46359 34.5512C8.99501 34.9569 8.32146 35.1462 7.67718 35.0651C7.15006 34.984 6.65221 34.7676 6.30079 34.389C5.83223 33.9293 5.65652 33.4424 6.00794 32.8745C5.83223 32.8745 5.68581 32.8745 5.53938 32.8745C5.24653 32.8475 4.98296 32.7934 4.74868 32.7393C4.51441 32.6582 4.28012 32.577 4.10442 32.4689C3.9287 32.3608 3.753 32.2526 3.60657 32.1444C2.52303 31.3331 2.23018 29.413 1.96661 28.142C1.73233 26.7086 1.43948 25.4105 1.20521 24.1125C1.17592 23.9502 1.05878 24.0584 1.02949 24.1395C0.707357 24.6263 0.502362 25.113 0.238797 25.5999C0.0923725 25.8702 -0.0247675 25.4646 0.00451754 25.2212C0.121657 24.5451 1.20521 22.7062 1.7909 22.1924C1.73233 22.0842 1.67376 21.9489 1.6152 21.8408C1.23449 21.0295 1.05878 19.9748 1.02949 19.0824C0.97092 17.8924 1.17592 16.7025 1.73233 15.6479C1.96661 15.1881 2.40589 14.6202 2.84516 14.2686C3.02087 14.1063 3.40157 14.0252 3.1673 14.2956C2.7866 14.7825 2.55231 15.2962 2.43517 15.81C2.20089 16.7295 2.11304 17.622 2.25946 18.5685C2.28874 18.7578 2.34731 18.7578 2.43517 18.5685C2.84516 17.7572 3.48943 17.3245 4.25084 17.5679C4.9244 17.7842 5.3051 18.5685 5.51009 19.1634C5.74437 19.8937 5.83223 20.4886 5.77366 21.0024C5.71509 21.4893 5.59795 21.976 5.33439 22.4087C6.06651 22.1924 7.29648 22.1653 7.38433 23.1119C7.91146 22.4087 8.20431 21.5974 8.05789 20.732C7.97004 20.1641 7.61862 19.8666 7.00363 20.0288C6.74007 20.0829 6.4765 20.2182 6.18365 20.4345C6.06651 20.5157 5.94937 20.5968 5.97866 20.4075L6.12508 17.1623C6.12508 17.0811 6.18365 17 6.24222 16.9729L8.38003 16.2698C7.99932 15.4315 8.70216 14.539 9.40503 14.0523C10.0785 13.5925 11.4257 13.3491 12.2456 13.5654C13.0949 13.7818 13.3877 14.3227 13.3585 15.1069C13.3292 16.1075 12.3042 17.0541 11.3964 17.5679C11.3085 17.622 11.25 17.7031 11.4257 17.7302C11.7185 17.7302 11.9528 17.7842 12.1871 17.8654C12.2456 17.1623 12.8607 16.7295 13.5342 16.5132C13.9149 16.4051 14.3541 16.351 14.7642 16.3239C14.9106 16.3239 14.9106 16.2698 14.852 16.1346C14.5591 15.2151 14.9106 14.512 15.9648 14.2686C14.3835 13.7007 12.5678 13.1598 10.8399 13.0787C10.3128 13.0517 9.72717 13.0246 9.22929 13.2139C9.08286 13.268 9.02429 13.1869 8.99501 13.0787L8.67287 12.051C8.52645 11.5643 8.90715 11.5913 9.3757 11.5913C10.1957 11.6183 11.045 11.8347 11.8357 12.051C13.6806 12.5648 15.3499 13.4573 17.2534 13.89C17.3998 13.9171 17.4584 13.863 17.4291 13.7277C17.3413 13.0787 16.902 12.051 16.6677 11.375C16.0234 11.5102 15.1742 11.2938 14.4713 11.2938H10.3714C10.1664 11.2938 10.1371 11.1856 10.1957 11.0234C10.4886 10.1039 12.1871 8.67058 12.9192 8.10267C13.7099 7.48066 14.5885 6.72344 15.1742 5.91214C15.4377 5.56057 15.9648 4.74927 15.8477 4.28952C15.672 3.61343 14.8813 3.72161 14.4127 4.07318C13.7977 4.53291 13.4464 5.15492 13.1828 5.83101C13.0949 6.04735 12.9778 6.0744 12.7728 5.83101C12.5971 5.61466 12.5678 5.37126 12.5971 5.10083C12.9192 3.1537 15.8184 2.63987 17.1948 3.965C17.4291 4.18135 17.6341 4.3977 17.8391 4.61404C18.0148 4.7763 18.0148 4.7763 18.249 4.66814C18.5419 4.55996 18.8347 4.45178 19.1276 4.34361C19.2448 4.28952 19.2154 4.26248 19.1276 4.20839C18.4834 3.91092 17.9562 3.31596 18.3369 2.63987C18.9519 1.55813 20.7676 1.28769 21.939 1.61221C22.3489 1.72039 22.7296 1.88265 23.0811 2.09899C23.0518 1.88265 23.0518 1.63926 23.1104 1.34177C23.2275 0.665688 23.696 0.178904 24.4868 0.44934C25.1017 0.665688 25.4532 1.34177 25.5996 1.88265C25.5996 1.93673 25.6582 1.99082 25.6874 1.90969C25.7753 1.72039 25.8924 1.55813 26.0096 1.4229C26.2439 1.20656 26.566 1.17951 26.8882 1.2336C27.2689 1.28769 27.7081 1.53108 27.9717 1.77447C28.3524 2.07195 28.6452 2.45056 28.8502 2.88326C29.0553 3.42413 29.1724 3.93795 29.2016 4.42474Z" fill="#E0A626"></path>
</g>
<defs>
<clipPath id="SvgjsClipPath1000">
<rect width="54.931" height="54" fill="white"></rect>
</clipPath>
</defs>
</svg><style>@media (prefers-color-scheme: light) { :root { filter: none; } }
</style></svg>