<?xml version="1.0" standalone="no"?>
<!DOCTYPE svg PUBLIC "-//W3C//DTD SVG 20010904//EN"
 "http://www.w3.org/TR/2001/REC-SVG-20010904/DTD/svg10.dtd">
<svg version="1.0" xmlns="http://www.w3.org/2000/svg"
 width="880.000000pt" height="880.000000pt" viewBox="0 0 880.000000 880.000000"
 preserveAspectRatio="xMidYMid meet">
<metadata>
Created by potrace 1.14, written by Peter Selinger 2001-2017
</metadata>
<g transform="translate(0.000000,880.000000) scale(0.100000,-0.100000)"
fill="#000000" stroke="none">
<path d="M3779 8639 c-47 -27 -77 -90 -85 -177 -4 -37 -7 -68 -8 -69 -1 -1
-24 9 -51 22 -59 29 -133 52 -195 61 -69 9 -160 10 -160 1 0 -5 -4 -6 -9 -3
-15 10 -112 -14 -177 -44 -113 -51 -192 -148 -179 -221 10 -57 54 -113 112
-143 61 -31 60 -31 -76 -82 -44 -16 -69 -20 -80 -14 -9 5 -47 40 -84 78 -77
79 -136 115 -228 138 -59 15 -149 20 -209 10 -190 -29 -329 -164 -335 -323 -1
-24 1 -43 4 -43 3 0 12 -13 19 -29 13 -31 37 -45 54 -35 6 4 21 31 34 61 54
121 143 227 221 264 58 28 125 25 156 -7 27 -27 45 -84 32 -104 -3 -5 -9 -23
-11 -38 -3 -15 -11 -34 -18 -42 -7 -8 -17 -26 -23 -40 -36 -84 -228 -290 -383
-410 -25 -19 -46 -38 -48 -42 -2 -5 -8 -8 -12 -8 -5 0 -20 -10 -33 -22 -13
-13 -45 -42 -73 -64 -163 -137 -310 -321 -302 -376 l3 -23 355 -1 c195 -1 387
-5 425 -9 39 -4 111 -8 162 -8 96 -1 92 1 104 -47 0 -3 6 -14 12 -25 6 -11 12
-24 13 -30 2 -5 19 -56 38 -112 19 -57 38 -121 41 -143 6 -37 4 -40 -17 -40
-22 0 -181 42 -218 57 -8 3 -18 7 -22 8 -5 2 -9 3 -10 5 -2 1 -10 3 -18 5 -8
2 -37 12 -65 23 -27 10 -120 45 -205 77 -85 31 -164 61 -175 65 -88 37 -359
106 -437 112 -16 1 -28 5 -28 8 0 3 -41 5 -91 4 -126 -1 -129 -5 -94 -125 44
-149 43 -148 118 -120 31 12 232 12 317 0 101 -14 181 -28 254 -44 59 -12 243
-65 301 -85 33 -12 67 -22 75 -23 8 -1 25 -8 36 -14 12 -7 24 -9 28 -6 3 3 6
2 5 -3 0 -5 -27 -22 -60 -37 -82 -39 -114 -87 -113 -171 0 -34 4 -76 7 -93 7
-30 5 -33 -15 -34 -13 0 -32 -2 -43 -4 -11 -2 -40 -7 -65 -10 -143 -18 -264
-98 -290 -190 -7 -25 -16 -42 -21 -39 -5 2 -23 7 -41 9 -48 7 -80 14 -85 19
-3 2 15 17 39 32 192 124 288 260 283 404 -5 149 -102 228 -282 232 -221 3
-411 -94 -499 -257 -26 -46 -36 -126 -23 -174 4 -13 -58 -43 -111 -55 -8 -2
-24 -6 -35 -10 -11 -5 -38 -15 -60 -23 -22 -8 -40 -14 -40 -13 0 7 -87 -25
-94 -34 -9 -10 -12 -56 -27 -366 -3 -63 -6 -132 -8 -152 -2 -44 2 -46 52 -15
33 21 68 38 82 41 3 1 11 5 18 9 12 8 48 10 87 4 81 -12 119 -128 89 -273 -11
-57 -54 -155 -86 -197 -13 -17 -15 -15 -31 22 -31 70 -140 102 -269 77 -37 -7
-47 0 -29 19 12 13 38 91 47 146 27 148 -21 370 -106 489 -43 61 -91 98 -143
111 -107 25 -190 -18 -264 -139 -19 -32 -29 -40 -37 -32 -13 13 -15 260 -3
330 26 145 61 239 120 327 19 28 32 54 29 57 -13 14 -34 3 -86 -45 -51 -47
-165 -202 -170 -231 -1 -7 -7 -22 -13 -33 -15 -28 -51 -146 -58 -192 -3 -21
-9 -61 -13 -88 -12 -76 -3 -370 13 -395 2 -3 6 -22 9 -44 8 -52 53 -184 76
-223 l18 -31 -27 -29 c-31 -33 -121 -158 -121 -169 0 -4 -6 -15 -14 -23 -18
-21 -87 -154 -108 -208 -23 -61 -15 -155 11 -127 5 5 33 54 62 109 52 102 88
159 95 153 4 -5 41 -189 59 -293 2 -11 8 -40 14 -65 5 -25 12 -58 15 -75 3
-16 8 -39 10 -50 2 -11 9 -54 16 -95 6 -41 16 -91 20 -110 5 -19 11 -52 14
-72 2 -21 7 -41 10 -46 3 -5 8 -24 10 -43 11 -79 68 -241 113 -320 29 -52 117
-149 134 -149 4 0 14 -6 21 -13 27 -27 153 -75 213 -81 22 -3 59 -5 81 -5 l42
-1 -14 -37 c-17 -50 -17 -73 1 -117 18 -41 95 -122 141 -148 68 -38 126 -50
211 -46 69 4 94 10 153 39 66 34 70 34 70 15 0 -54 85 -162 185 -236 89 -65
258 -140 374 -165 12 -3 31 -7 43 -10 13 -3 59 -12 103 -20 170 -30 243 -48
330 -82 142 -55 204 -73 295 -87 182 -27 351 1 546 89 l72 33 11 -42 c46 -171
29 -326 -51 -473 -39 -73 -40 -76 -34 -151 5 -74 9 -99 20 -152 3 -13 8 -40
11 -60 3 -20 8 -47 11 -60 54 -253 63 -526 23 -674 -6 -22 -12 -45 -13 -51 -4
-18 -27 -89 -36 -110 -5 -11 -19 -58 -30 -105 -53 -218 -80 -265 -183 -314
-49 -23 -275 -87 -352 -100 -16 -3 -48 -8 -70 -12 -22 -3 -43 -8 -46 -10 -3
-2 -21 -6 -40 -9 -43 -8 -149 -34 -169 -42 -8 -3 -18 -6 -22 -5 -20 4 -428
-141 -428 -152 0 -1 905 -2 2010 -2 1963 0 2010 0 1971 18 -23 10 -44 19 -48
19 -5 1 -16 5 -27 11 -18 10 -179 69 -184 68 -1 0 -39 10 -85 24 -73 21 -121
34 -152 41 -5 2 -46 11 -90 21 -44 10 -86 18 -92 17 -7 0 -13 3 -13 9 0 5 -5
6 -10 3 -6 -4 -25 -2 -43 4 -17 6 -54 13 -80 15 -26 3 -51 7 -55 9 -4 3 -29 7
-57 11 -84 10 -108 16 -150 36 -49 24 -75 44 -75 58 0 6 -4 12 -10 14 -17 6
-49 112 -57 194 -9 91 -9 213 1 364 11 162 14 188 21 200 3 5 1 10 -5 10 -6 0
-8 4 -5 10 15 25 24 381 12 495 -13 127 -37 189 -132 340 -100 159 -180 361
-209 526 -17 101 -18 278 -1 336 7 24 11 43 9 43 -9 0 46 99 73 130 46 55 95
70 240 75 196 7 443 26 588 46 39 5 84 11 100 13 17 2 50 7 75 11 25 4 56 9
70 10 14 2 25 4 25 5 0 1 14 3 30 5 25 3 87 15 105 20 3 1 25 5 50 9 25 4 81
17 125 28 44 11 90 22 102 24 42 8 326 92 373 111 8 3 22 7 30 9 40 8 331 134
460 198 269 135 536 314 729 491 109 99 261 259 176 184 -48 -42 -245 -190
-310 -234 -33 -22 -66 -46 -73 -52 -7 -7 -17 -13 -22 -13 -5 0 -15 -6 -22 -12
-18 -18 -117 -78 -128 -78 -5 0 -10 -4 -12 -8 -4 -11 -121 -77 -130 -74 -5 1
-8 -2 -8 -6 0 -8 -46 -34 -60 -34 -3 0 -16 -8 -30 -18 -14 -9 -45 -26 -70 -37
-25 -12 -83 -39 -130 -60 -141 -66 -175 -81 -178 -78 -2 2 5 23 16 47 53 116
102 257 118 334 2 12 13 65 24 119 11 54 22 121 25 149 3 28 7 62 10 76 3 14
7 68 9 120 6 107 8 111 -50 -125 -40 -162 -36 -150 -64 -240 -57 -186 -162
-399 -262 -535 -22 -29 -291 -111 -513 -156 -73 -14 -77 -15 -195 -35 -36 -6
-76 -12 -90 -14 -14 -2 -45 -6 -70 -9 -88 -12 -140 -17 -192 -21 -398 -28
-784 -24 -925 8 -209 49 -316 185 -315 402 1 73 9 172 17 215 3 14 8 40 11 59
7 44 10 58 23 111 7 25 14 56 17 69 3 14 14 57 25 97 11 40 22 81 24 91 21 93
126 406 195 586 l42 107 96 -6 c101 -5 437 -5 532 1 88 5 193 15 220 19 14 3
50 8 81 11 31 3 67 8 80 10 13 3 40 7 59 10 19 3 46 7 60 9 14 3 42 8 64 11
21 3 42 7 46 10 9 5 77 18 103 19 9 0 17 3 17 6 0 3 8 6 18 7 38 4 220 56 387
112 114 38 347 141 446 196 33 19 62 35 64 35 2 0 52 32 112 71 172 114 252
186 454 405 69 75 221 204 241 204 2 0 -49 -54 -114 -119 -65 -65 -118 -123
-118 -129 0 -6 -4 -12 -8 -14 -4 -1 -21 -21 -37 -42 l-30 -39 40 8 c22 4 47 9
55 10 8 1 24 6 35 10 11 4 34 12 50 18 93 34 196 121 259 217 85 130 115 254
107 445 -1 34 -3 37 -13 21 -31 -54 -144 -166 -247 -244 -45 -35 -109 -91
-161 -142 -46 -44 -132 -154 -129 -165 1 -3 -4 -18 -9 -33 -6 -15 -16 -46 -22
-68 -8 -34 -21 -50 -68 -85 -31 -23 -58 -46 -60 -51 -2 -4 -10 -8 -18 -8 -8 0
-14 -4 -14 -10 0 -5 -5 -10 -11 -10 -6 0 -29 -13 -52 -29 -171 -116 -557 -288
-822 -366 -33 -10 -78 -23 -100 -30 -115 -37 -484 -116 -605 -130 -25 -3 -62
-8 -83 -11 -246 -35 -613 -35 -805 1 -41 8 -42 5 50 190 84 168 139 269 150
273 4 2 6 8 2 13 -3 5 0 9 5 9 6 0 11 4 11 9 0 16 198 324 240 374 6 6 27 35
47 62 33 46 134 174 158 201 6 7 30 35 55 65 186 218 456 475 690 658 36 28
70 54 75 58 64 52 338 201 379 207 6 1 16 4 21 7 11 7 89 33 92 31 2 -1 19 6
39 14 20 8 38 13 40 11 3 -2 -24 -16 -58 -31 -94 -42 -232 -109 -238 -117 -3
-3 -23 -16 -45 -27 -43 -23 -75 -46 -75 -54 0 -10 93 -20 159 -19 35 1 91 9
125 17 82 20 76 18 120 37 21 9 40 17 42 17 1 0 29 17 61 39 68 45 137 109
178 166 17 22 32 42 35 45 27 26 113 226 104 242 -4 6 -9 6 -13 1 -14 -21
-143 -84 -261 -126 -358 -130 -445 -176 -544 -292 -27 -30 -52 -55 -57 -55 -5
0 -33 -16 -63 -35 -30 -19 -58 -35 -61 -35 -3 0 -18 -8 -33 -19 -15 -10 -76
-51 -137 -91 -102 -68 -268 -189 -325 -239 -156 -135 -284 -260 -380 -371 -36
-41 -74 -84 -85 -95 -11 -12 -28 -32 -38 -45 l-17 -25 5 39 c3 21 8 48 10 60
10 43 22 187 26 321 1 21 -11 262 -15 295 -23 222 -35 254 -37 94 -2 -151 -15
-370 -24 -384 -2 -3 -6 -36 -10 -75 -3 -38 -8 -72 -11 -76 -2 -4 -6 -24 -9
-45 -3 -22 -8 -46 -11 -54 -3 -8 -7 -26 -9 -40 -11 -81 -82 -293 -135 -405
-20 -44 -64 -120 -97 -170 -180 -273 -370 -630 -508 -955 -15 -36 -35 -83 -45
-105 -110 -255 -260 -722 -304 -950 -44 -228 -51 -465 -21 -680 6 -42 7 -48
24 -130 16 -79 18 -86 36 -155 9 -36 19 -73 20 -83 2 -9 6 -21 9 -25 3 -5 7
-19 10 -33 2 -13 39 -143 81 -289 42 -146 78 -273 80 -282 2 -9 13 -51 25 -93
12 -42 23 -84 25 -93 3 -9 15 -64 29 -122 24 -104 38 -179 40 -212 0 -10 4
-18 9 -18 4 0 5 -5 2 -10 -4 -6 -2 -25 4 -43 27 -87 35 -294 16 -394 -13 -66
-56 -197 -75 -231 -26 -46 -92 -236 -105 -303 -10 -48 -18 -115 -20 -164 -2
-27 -3 -53 -4 -57 -1 -5 -45 -8 -100 -8 l-99 0 3 27 c5 56 17 148 22 168 2 11
6 36 9 55 3 19 14 71 25 115 12 44 22 85 24 90 4 19 58 159 80 210 46 105 50
131 48 325 -1 144 -5 209 -17 270 -1 8 -6 33 -10 55 -4 22 -15 74 -23 115 -8
41 -17 84 -19 95 -4 22 -33 144 -38 160 -1 6 -7 28 -11 50 -12 55 -12 55 -15
58 -1 1 -3 9 -5 17 -2 8 -20 76 -40 150 -20 74 -38 143 -41 152 -2 10 -6 26
-9 35 -2 10 -14 54 -26 98 -11 44 -23 88 -25 97 -7 30 -12 51 -28 113 -45 176
-59 360 -41 565 10 121 11 323 2 375 -4 22 -19 96 -33 165 -41 205 -35 253 49
364 67 87 100 146 121 212 24 75 27 91 31 186 4 68 0 102 -16 152 -11 36 -24
68 -29 71 -6 3 -10 12 -10 18 0 9 35 13 133 14 103 0 141 4 165 17 35 18 74
74 86 120 6 26 5 28 -16 22 -62 -18 -398 -29 -413 -14 -24 23 101 154 245 256
36 26 74 55 84 64 11 10 23 18 28 18 13 0 110 72 154 115 93 92 126 207 77
273 -34 46 -123 84 -198 84 -33 0 -116 -13 -139 -22 -14 -5 -26 -8 -26 -7 0 1
11 61 25 132 14 72 28 146 31 165 3 19 7 42 9 50 2 8 7 29 10 45 6 34 12 69
20 105 10 48 15 75 21 110 3 19 9 51 14 70 5 19 11 51 14 70 3 19 8 46 11 60
3 14 9 50 15 80 5 30 14 69 19 87 18 62 -23 58 -134 -12 -102 -65 -278 -225
-314 -285 -21 -34 -28 -80 -13 -80 4 0 32 24 62 53 88 83 152 137 162 137 9 0
6 -38 -7 -100 -3 -14 -7 -41 -10 -60 -3 -19 -7 -46 -9 -60 -3 -14 -10 -54 -16
-90 -5 -36 -12 -74 -14 -85 -9 -47 -20 -111 -22 -130 -1 -11 -4 -33 -8 -50
-33 -170 -39 -220 -39 -305 0 -114 28 -199 65 -200 4 0 22 30 40 67 57 118
155 199 224 187 44 -8 68 -37 66 -81 -2 -44 -49 -142 -93 -193 -61 -71 -164
-170 -178 -170 -10 0 -11 3 -3 13 6 7 13 24 15 37 3 14 8 37 12 53 7 25 5 27
-22 27 -16 0 -54 -4 -84 -10 -30 -5 -72 -12 -94 -15 -22 -2 -59 -7 -82 -11
-72 -11 -80 3 -78 126 3 112 8 158 31 260 8 36 17 78 20 94 3 15 23 78 45 140
22 61 41 116 43 121 2 6 6 17 9 25 16 44 40 127 44 155 5 39 -6 49 -39 36 -37
-16 -292 -94 -305 -94 -7 0 -13 -5 -13 -10 0 -6 -3 -8 -6 -4 -5 5 -128 -35
-189 -62 -11 -5 -42 -19 -70 -31 -27 -13 -74 -33 -102 -46 -29 -13 -59 -21
-68 -18 -8 4 -15 7 -15 8 0 0 -18 55 -40 120 -22 66 -38 122 -35 124 2 2 10 0
17 -4 19 -12 36 -15 119 -19 43 -2 94 1 115 6 57 15 361 167 499 250 170 102
250 165 331 264 54 65 139 194 148 223 4 12 12 22 17 22 5 0 9 4 9 9 0 5 14
39 30 74 17 36 30 68 30 70 0 3 4 16 9 29 5 13 9 25 9 28 0 3 6 19 12 35 46
118 59 275 31 361 -38 114 -105 156 -256 160 -85 3 -110 0 -169 -21 -38 -13
-72 -28 -75 -33 -3 -5 -15 -12 -27 -16 -32 -10 -121 -103 -158 -165 -28 -49
-52 -105 -62 -146 -2 -5 -6 -21 -9 -35 -4 -14 -8 -56 -10 -94 -8 -177 77 -279
229 -278 59 0 147 29 161 52 3 6 10 10 16 10 13 0 -53 -129 -109 -215 -41 -62
-182 -213 -237 -255 -59 -44 -184 -114 -192 -107 -2 3 -6 36 -9 74 -2 37 -5
79 -6 92 -2 15 3 25 12 26 8 2 35 6 59 10 86 13 187 64 217 110 54 83 2 165
-132 207 l-72 22 15 39 c13 33 14 40 2 47 -7 5 -18 5 -24 1 -15 -11 -53 -13
-229 -15 -109 -1 -160 3 -163 10 -5 16 70 101 157 178 40 35 207 156 215 156
13 0 122 89 156 127 48 53 81 126 81 175 -3 180 -355 215 -495 49 l-26 -31
-50 40 c-97 77 -101 134 -12 193 92 61 234 85 362 61 67 -13 87 -22 180 -86
96 -65 154 -77 213 -46 19 10 19 11 -3 29 -13 11 -31 19 -40 19 -21 0 -89 45
-119 79 -29 33 -40 77 -31 119 14 64 77 78 163 37 63 -31 73 -39 117 -95 45
-57 57 -87 65 -155 7 -55 24 -82 44 -70 5 3 10 17 10 31 0 57 56 129 108 139
32 6 120 -21 166 -50 108 -70 180 -189 211 -347 4 -20 10 -26 21 -21 13 5 15
20 11 87 -5 81 -8 105 -29 181 -5 22 -9 42 -8 44 1 2 -2 7 -7 10 -4 3 -17 24
-28 46 -11 22 -49 70 -86 106 -84 84 -159 121 -246 122 -56 1 -66 -2 -94 -28
-17 -17 -38 -43 -46 -59 -17 -33 -26 -26 -43 37 -6 20 -15 37 -20 37 -6 0 -10
6 -10 14 0 8 -21 36 -47 63 -72 73 -155 92 -224 52z m-214 -525 c22 -9 43 -54
38 -84 -4 -30 -42 -110 -60 -128 -7 -7 -13 -17 -13 -22 0 -14 -180 -192 -255
-252 -69 -55 -88 -72 -152 -131 l-31 -29 2 61 c7 180 -70 266 -224 250 -135
-14 -248 -97 -337 -247 -37 -62 -110 -242 -98 -242 2 0 0 -12 -6 -27 -6 -16
-13 -55 -16 -88 -3 -33 -7 -62 -9 -64 -8 -9 -461 -13 -467 -4 -12 19 31 80
116 165 48 49 104 99 125 113 68 46 277 193 289 204 7 6 15 11 19 11 4 0 12 6
18 14 29 35 265 206 285 206 5 0 11 4 13 8 4 11 233 112 253 112 8 0 15 4 15
8 0 5 6 9 13 9 6 0 41 12 77 25 l65 25 1 -48 c0 -32 7 -55 19 -69 26 -28 41
-25 56 13 18 45 72 130 101 157 55 53 114 72 163 54z m615 -104 c39 -21 49
-138 20 -215 -5 -14 -7 -25 -4 -25 4 0 1 -7 -6 -15 -7 -9 -10 -18 -7 -22 4 -3
3 -11 -1 -17 -5 -6 -17 -33 -27 -61 -43 -116 -137 -237 -194 -250 -72 -15 -74
-15 -107 20 -30 32 -32 38 -29 102 3 80 17 133 62 226 93 191 215 299 293 257z
m-1267 -288 c19 -4 37 -74 32 -124 -12 -131 -48 -240 -153 -458 -67 -140 -157
-220 -214 -189 -61 32 -29 233 80 509 14 36 31 72 37 80 7 8 15 23 18 33 10
28 69 102 104 129 28 22 56 27 96 20z m716 -473 c17 -6 36 -19 41 -29 15 -27
12 -69 -5 -86 -8 -8 -20 -23 -27 -33 -18 -26 -88 -59 -135 -64 -39 -5 -41 -4
-47 25 -13 67 -3 133 27 162 31 31 96 42 146 25z m-326 -49 c-22 -40 -24 -53
-19 -121 l6 -76 -38 0 c-118 1 -257 -36 -310 -83 l-33 -29 -42 20 c-23 10 -50
19 -59 19 -10 0 -18 2 -18 5 0 3 30 34 68 69 44 42 82 91 111 142 25 44 50 84
57 89 7 6 72 10 156 10 l145 0 -24 -45z m15 -280 c18 -97 -6 -198 -61 -251
-34 -33 -113 -66 -151 -64 -41 3 -94 38 -106 70 -32 83 71 212 204 255 73 24
108 21 114 -10z m-1485 -474 c91 -38 102 -217 21 -362 -57 -103 -160 -207
-237 -239 -18 -7 -36 -17 -40 -22 -5 -4 -12 -8 -15 -8 -24 0 -99 -38 -109 -54
-22 -35 -6 -52 41 -45 22 4 72 7 110 8 88 2 168 -34 205 -91 47 -72 28 -238
-41 -377 -11 -21 -24 -44 -29 -50 -113 -143 -184 -209 -294 -275 l-57 -34 -39
44 c-21 24 -39 48 -39 52 0 5 17 29 39 53 45 51 104 160 122 224 16 61 19 185
4 240 -27 101 -66 158 -131 189 -64 31 -184 8 -257 -49 -20 -16 -28 -18 -32
-8 -4 10 -1 131 4 194 1 13 22 23 61 30 13 3 30 10 37 16 7 6 13 8 13 4 0 -3
19 1 43 10 23 9 67 25 97 37 68 25 115 59 135 97 9 17 22 67 31 112 17 92 42
154 87 211 67 87 187 128 270 93z m1901 -118 c-8 -35 -31 -108 -50 -163 -91
-254 -120 -343 -175 -524 -33 -107 -61 -206 -64 -220 -3 -14 -14 -57 -25 -96
-27 -89 -25 -83 -34 -127 l-8 -37 -38 25 c-72 48 -201 43 -325 -11 -147 -65
-232 -227 -181 -349 22 -53 75 -93 89 -68 3 4 8 38 12 75 16 161 100 297 184
297 116 0 129 -144 33 -370 -20 -47 -38 -87 -41 -90 -3 -3 -17 -25 -30 -50
-13 -25 -59 -99 -101 -165 -42 -66 -83 -131 -89 -144 -16 -30 -23 -21 -51 66
l-23 72 36 40 c29 33 37 49 37 80 0 22 -5 43 -11 46 -5 4 -29 -12 -52 -34 -22
-23 -44 -38 -48 -34 -11 12 -138 376 -175 501 -59 197 -42 236 79 186 91 -39
205 -38 302 1 38 16 76 34 83 42 7 7 17 13 21 13 12 0 115 101 148 145 59 79
124 213 139 288 9 43 9 116 1 149 -9 35 -52 85 -91 105 -45 24 -142 26 -220 4
-36 -10 -68 -16 -70 -13 -6 5 93 128 153 190 76 78 281 219 281 193 0 -5 14
-14 31 -22 34 -13 76 -5 199 40 89 33 91 32 74 -41z m-1006 37 c24 -7 48 -52
44 -79 -10 -56 -111 -133 -183 -138 -33 -3 -34 -2 -45 47 -19 90 6 143 82 170
37 13 62 13 102 0z m226 -76 c54 -16 59 -45 15 -86 -156 -140 -269 -280 -339
-420 -24 -48 -43 -89 -42 -91 1 -1 -5 -16 -13 -32 -8 -16 -15 -33 -15 -37 0
-5 -3 -15 -5 -24 -5 -15 -10 -15 -51 -3 -43 13 -77 12 -149 -1 -60 -12 -176
-77 -233 -132 -20 -19 -24 -16 -16 10 9 27 15 87 15 145 0 27 4 40 10 36 30
-18 166 -25 228 -11 77 17 156 75 199 146 28 44 30 56 30 137 0 52 -5 102 -13
121 -12 29 -12 33 3 37 36 9 78 19 92 21 43 6 133 50 170 83 32 29 42 45 45
77 2 22 4 42 4 44 1 2 9 0 19 -4 9 -4 30 -11 46 -16z m-538 -272 c20 -111 1
-196 -58 -258 -72 -75 -186 -80 -245 -12 -75 86 59 268 220 298 21 4 40 11 42
16 12 19 34 -5 41 -44z m739 -141 c34 -52 -11 -201 -112 -369 -56 -92 -133
-181 -177 -204 -65 -34 -129 -16 -142 39 -10 44 -7 70 23 158 47 140 103 233
196 322 85 83 178 106 212 54z m-2583 -125 c23 -4 93 -132 114 -211 30 -112
41 -190 38 -287 -4 -136 -2 -129 -35 -164 -53 -57 -116 -24 -174 90 -29 59
-71 182 -89 264 -20 88 -2 216 37 270 29 39 56 48 109 38z m1915 -216 c18 -13
21 -23 18 -63 -12 -167 -337 -592 -452 -592 -14 0 -33 5 -45 11 -17 9 -19 17
-14 63 3 28 13 67 22 86 23 46 104 190 115 204 5 6 35 47 67 91 74 100 123
149 187 186 57 33 72 35 102 14z m1416 -114 c-13 -11 -49 -42 -80 -69 -148
-129 -273 -212 -322 -215 -22 -2 -25 1 -22 23 3 22 8 51 10 58 1 1 1 3 0 5 0
1 4 15 10 30 6 15 13 41 16 57 7 40 23 80 32 81 5 0 17 3 28 5 11 2 43 6 70 8
68 5 217 25 221 29 2 1 16 3 31 4 l28 2 -22 -18z m-2017 -338 c-28 -95 -41
-372 -21 -473 52 -270 201 -476 488 -673 37 -26 67 -44 67 -41 0 3 13 -4 29
-16 54 -38 274 -135 396 -175 69 -22 69 -22 75 -23 3 0 22 -7 43 -15 20 -9 37
-14 37 -12 0 2 15 -2 34 -10 18 -8 44 -16 58 -19 71 -12 188 -50 189 -60 0 -6
2 -20 4 -31 10 -52 11 -181 3 -220 -13 -63 -64 -103 -173 -138 -132 -43 -257
-40 -403 9 -203 67 -383 202 -549 409 -35 44 -70 87 -76 95 -7 8 -23 31 -37
50 -50 72 -173 196 -202 206 -10 3 -18 9 -18 13 0 14 -244 129 -330 155 -82
25 -98 28 -185 41 -23 3 -52 8 -65 10 -40 9 -425 4 -425 -5 0 -1 -12 -3 -26
-5 -74 -10 -103 -17 -165 -40 -37 -14 -73 -30 -80 -36 -16 -13 -20 -4 -29 52
l-7 47 49 6 c26 4 71 9 98 11 28 2 61 6 75 9 14 3 50 8 80 10 122 12 148 16
176 26 16 6 37 19 48 28 46 42 77 153 39 137 -59 -25 -288 -65 -374 -65 -89 0
36 158 394 497 116 109 143 124 133 76 -18 -93 -24 -304 -12 -413 14 -116 54
-213 86 -207 12 2 15 18 12 87 -4 150 -4 252 2 257 6 6 28 -16 111 -111 33
-38 74 -83 90 -101 17 -18 55 -61 85 -96 30 -34 68 -76 83 -93 15 -17 47 -53
70 -80 23 -27 51 -59 62 -70 11 -12 45 -51 75 -86 30 -36 57 -67 60 -70 48
-41 230 -293 230 -319 0 -6 4 -11 8 -11 4 0 15 -12 24 -27 51 -84 170 -174
248 -188 19 -3 37 -8 41 -11 5 -3 27 0 49 6 40 11 72 36 101 80 l16 24 13 -39
c7 -22 13 -42 13 -45 1 -12 56 -81 83 -102 48 -38 72 -48 114 -48 54 0 96 23
117 63 23 43 25 52 28 125 6 104 -26 166 -107 206 -52 26 -95 23 -127 -8 -13
-13 -11 -17 15 -26 95 -37 161 -94 165 -145 4 -60 -1 -74 -31 -90 -37 -19 -88
-13 -143 17 -88 48 -153 158 -149 249 0 15 -37 46 -39 32 -1 -5 -2 -19 -3 -33
-6 -60 -53 -115 -107 -124 -35 -6 -130 34 -182 77 -48 39 -75 89 -107 192 -11
39 -23 76 -25 83 -3 7 -4 13 -3 15 0 1 -16 34 -37 72 -33 63 -95 152 -135 195
-21 23 -60 67 -170 195 -52 61 -107 124 -122 140 -35 40 -61 70 -111 129 -23
27 -75 88 -116 135 l-74 85 31 8 c89 23 363 187 400 240 17 23 25 23 18 1z
m-886 -23 c26 -27 27 -33 19 -77 -13 -68 -78 -192 -141 -267 -4 -6 -18 -22
-29 -36 -11 -14 -64 -70 -117 -126 -139 -144 -222 -247 -222 -273 0 -31 -18 4
-24 46 -9 59 -14 85 -26 148 -5 28 -12 63 -14 79 -3 16 -10 52 -15 80 -6 28
-13 67 -16 86 -3 19 -7 44 -9 55 -3 20 -22 117 -31 165 -3 13 -7 42 -11 64 -3
22 -8 45 -12 51 -3 5 5 2 18 -8 67 -47 100 -66 131 -75 37 -10 113 -8 149 3
20 6 21 4 14 -32 -3 -21 -6 -40 -6 -43 0 -28 6 -43 28 -69 29 -35 45 -28 58
24 20 80 96 194 148 221 40 21 79 15 108 -16z m1515 -252 c27 -84 50 -156 51
-160 1 -5 3 -10 4 -13 1 -3 3 -8 4 -12 1 -5 16 -53 34 -107 18 -55 31 -100 30
-101 -20 -13 -155 -123 -160 -130 -13 -17 -42 10 -50 46 -8 41 -17 105 -23
177 -2 29 -7 57 -10 62 -4 6 -3 10 2 10 4 0 8 42 9 93 1 120 6 167 17 167 4 0
6 4 3 9 -9 14 16 111 29 111 6 0 33 -69 60 -152z m-149 126 c-15 -39 -54 -263
-62 -359 -3 -33 -7 -78 -9 -100 -2 -22 -5 -93 -5 -158 -1 -138 3 -137 -109
-29 -82 79 -132 145 -170 221 -56 111 -77 205 -72 323 l1 27 41 -14 c48 -17
96 -19 159 -4 54 12 162 64 187 89 22 23 47 26 39 4z m1286 -1 c67 -39 83
-155 38 -288 -46 -139 -132 -241 -258 -305 -66 -33 -286 -109 -337 -116 -5 0
-23 -6 -38 -12 -16 -7 -40 -12 -54 -12 -24 0 -25 2 -20 37 8 48 80 193 129
258 4 6 42 62 85 126 93 139 150 206 220 261 87 67 174 86 235 51z m-961 -658
c6 -16 10 -31 10 -33 -1 -1 6 -16 14 -32 8 -16 15 -31 14 -32 -5 -10 56 -185
67 -194 11 -9 45 -3 144 26 72 21 130 35 130 33 0 -3 6 -1 13 4 6 6 37 16 67
23 30 7 71 20 89 28 19 7 42 15 52 17 9 2 51 18 93 35 42 18 79 30 81 28 5 -5
18 -108 18 -143 0 -32 -10 -81 -21 -101 -31 -58 -115 -95 -202 -88 -110 8
-291 42 -399 76 -35 11 -71 21 -80 23 -30 7 -195 77 -266 113 -38 19 -80 40
-92 46 -13 6 -23 14 -23 17 0 3 59 51 130 105 72 54 130 103 131 109 0 11 13
-14 30 -60z m-1678 -338 c15 -1 27 -6 27 -10 0 -5 5 -5 11 -2 10 7 39 -2 106
-31 62 -28 91 -94 59 -136 -17 -23 -89 -54 -146 -64 -54 -9 -277 -10 -340 -2
-25 4 -58 12 -75 18 -16 6 -31 11 -33 11 -1 -1 -17 5 -35 13 -40 16 -77 60
-77 91 0 52 100 96 254 111 28 2 51 6 52 7 2 2 143 -2 197 -6z m410 -2 c59
-11 75 -14 147 -30 41 -9 82 -19 90 -22 8 -4 17 -7 20 -8 53 -13 169 -65 194
-86 6 -5 20 -16 31 -25 11 -8 -14 2 -55 22 -99 49 -182 54 -261 15 -71 -35
-105 -80 -122 -161 -14 -72 -20 -75 -92 -55 -22 6 -43 12 -47 13 -13 3 -12 6
15 49 32 51 36 111 12 168 -19 43 -89 115 -112 115 -8 0 -11 5 -7 11 6 10 114
7 187 -6z m654 -349 c15 -23 30 -43 33 -46 5 -5 135 -197 155 -229 6 -9 12
-18 15 -21 3 -3 14 -16 25 -30 l20 -24 -25 15 c-99 63 -136 83 -201 109 -77
32 -153 56 -204 64 -16 3 -48 8 -70 12 -54 10 -132 10 -178 1 -32 -7 -37 -6
-34 10 5 31 17 42 40 37 50 -12 174 -10 221 2 62 16 96 40 118 84 16 31 16 35
-2 83 -10 27 -28 56 -39 64 -12 8 -21 19 -21 25 0 14 113 -105 147 -156z
m-230 124 c74 -45 63 -108 -27 -156 -33 -17 -156 -28 -186 -17 -13 5 0 93 18
128 33 61 131 84 195 45z m-397 -235 c0 -48 -27 -123 -61 -169 -97 -133 -332
-123 -332 13 0 51 36 100 100 138 63 37 124 52 216 52 l77 1 0 -35z m315 -178
c16 -4 90 -24 115 -32 3 -1 18 -7 33 -13 16 -7 32 -12 37 -12 4 0 40 -13 79
-29 39 -16 71 -27 71 -25 0 2 46 -20 102 -48 109 -57 192 -126 200 -170 9 -47
-27 -71 -102 -70 -38 0 -142 19 -175 32 -14 5 -25 8 -25 5 0 -2 -17 3 -37 11
-20 9 -46 18 -57 20 -12 2 -90 38 -175 80 -122 60 -165 86 -207 129 -37 36
-54 62 -54 79 0 43 21 54 102 50 40 -1 82 -5 93 -7z m820 -299 c168 -88 384
-104 653 -47 53 11 104 22 112 23 12 2 40 -40 40 -60 0 -2 -41 -24 -90 -49
-108 -54 -227 -95 -295 -100 -27 -2 -52 -5 -55 -6 -18 -6 -126 5 -180 17 -36
9 -69 17 -75 18 -5 1 -62 19 -127 40 -115 37 -116 37 -109 64 11 44 5 103 -16
158 l-20 52 56 -42 c31 -23 79 -53 106 -68z"/>
<path d="M4841 8548 c1 -31 -8 -113 -26 -248 -34 -245 -21 -493 30 -615 10
-22 16 -40 15 -40 -6 0 75 -113 105 -146 32 -36 83 -79 94 -79 4 0 5 15 3 33
-2 17 -5 50 -7 72 -2 22 -4 40 -5 40 -1 0 -3 14 -5 30 -3 31 -12 92 -21 135
-2 14 -7 39 -10 55 -11 64 -45 224 -54 256 -10 34 -5 55 6 23 3 -10 10 -28 14
-39 11 -26 39 -116 44 -141 2 -10 9 -31 15 -47 19 -50 62 -217 81 -317 7 -36
16 -71 20 -78 10 -19 31 17 65 108 40 109 44 250 11 375 -31 114 -91 258 -123
292 -6 7 -15 23 -19 36 -4 12 -10 24 -13 27 -3 3 -19 25 -35 50 -40 62 -163
227 -176 235 -6 3 -10 -4 -9 -17z m106 -450 c-3 -8 -6 -5 -6 6 -1 11 2 17 5
13 3 -3 4 -12 1 -19z"/>
<path d="M6276 8321 c-4 -6 -5 -11 -2 -11 7 0 -28 -100 -54 -150 -13 -25 -62
-110 -110 -190 -115 -191 -157 -276 -181 -369 -21 -80 -23 -181 -6 -238 l10
-33 25 63 c46 114 205 397 223 397 4 0 -12 -37 -35 -82 -69 -137 -155 -362
-143 -375 14 -13 128 67 197 137 60 62 131 165 136 199 0 3 4 14 7 24 16 41
20 55 31 112 18 91 11 216 -18 327 -29 110 -70 206 -80 189z m-66 -495 c0 -2
-8 -10 -17 -17 -16 -13 -17 -12 -4 4 13 16 21 21 21 13z"/>
<path d="M5532 8177 c-1 -34 -5 -73 -8 -87 -3 -14 -7 -40 -10 -58 -2 -19 -13
-59 -23 -90 -163 -493 -185 -579 -184 -732 1 -116 19 -192 64 -282 21 -42 28
-47 27 -20 0 15 15 114 26 167 38 181 133 474 164 505 13 13 13 13 3 -5 -12
-22 -51 -155 -57 -195 -2 -14 -7 -36 -10 -50 -3 -14 -8 -36 -10 -50 -3 -14 -9
-47 -14 -75 -20 -101 -35 -295 -23 -295 11 0 54 34 104 83 64 61 154 191 163
237 1 3 4 10 7 15 8 13 36 102 45 140 13 60 12 269 -2 337 -31 148 -84 270
-179 414 -76 114 -80 116 -83 41z"/>
<path d="M1890 8023 c-45 -11 -183 -89 -227 -127 -14 -12 -20 -17 -83 -66 -25
-19 -55 -44 -66 -55 -12 -11 -48 -42 -80 -70 -119 -102 -274 -268 -274 -294 0
-6 -4 -11 -10 -11 -19 0 -10 -29 10 -35 11 -4 99 -7 196 -7 102 -1 177 -5 181
-11 4 -7 -35 -106 -54 -136 -1 -2 -16 8 -33 22 -17 15 -50 32 -73 38 -42 12
-167 19 -167 9 0 -3 -10 -5 -22 -6 -47 -2 -148 -34 -148 -46 0 -4 -6 -8 -13
-8 -28 0 -124 -99 -147 -152 -37 -86 -13 -197 60 -275 17 -18 30 -36 30 -42 0
-5 -42 -30 -92 -56 -109 -55 -146 -81 -210 -147 -165 -172 -124 -401 83 -461
79 -24 253 -18 319 10 8 3 17 7 20 7 19 4 121 70 150 97 72 69 129 195 125
274 -4 70 -45 167 -108 251 -25 34 -42 65 -38 70 3 5 35 27 71 48 36 22 67 42
70 46 3 3 25 21 50 40 106 83 187 182 243 298 20 39 33 72 30 72 -2 0 4 12 15
28 14 18 30 27 51 28 53 2 55 3 84 29 43 41 36 55 -25 51 -29 -2 -56 -2 -60 0
-3 2 4 25 17 52 12 26 57 126 100 222 43 96 93 206 112 244 19 37 32 70 30 72
-11 11 -69 9 -117 -3z m-109 -141 c-22 -44 -141 -297 -187 -399 l-23 -52 -103
1 c-57 1 -106 3 -110 5 -24 13 120 210 229 316 127 123 224 187 194 129z
m-478 -685 c74 -48 21 -218 -94 -300 -48 -35 -58 -34 -90 6 -78 97 -89 180
-33 246 18 21 48 45 65 54 41 19 118 17 152 -6z m-254 -542 c88 -101 125 -273
77 -363 -24 -47 -106 -122 -139 -129 -15 -3 -30 -9 -33 -14 -2 -4 -10 -6 -17
-4 -7 2 -30 6 -51 9 -167 19 -167 280 0 443 42 41 112 93 125 93 4 0 21 -16
38 -35z"/>
<path d="M4505 7758 c0 -158 -11 -244 -51 -413 -3 -11 -7 -29 -9 -40 -8 -45
-17 -83 -32 -140 -8 -33 -17 -69 -19 -80 -2 -11 -13 -65 -24 -120 -11 -55 -22
-116 -24 -135 -3 -19 -5 -35 -6 -35 -7 0 -13 -121 -13 -235 0 -141 10 -211 46
-319 24 -71 95 -203 113 -208 7 -2 11 13 11 39 -1 53 12 237 18 269 3 13 7 41
10 64 3 22 11 67 16 100 6 33 12 71 14 85 2 14 4 25 5 25 1 0 3 8 5 17 23 122
93 378 106 392 5 5 5 -5 -1 -22 -5 -18 -9 -35 -9 -37 -1 -3 -1 -6 -2 -7 0 -2
-2 -12 -3 -23 -3 -20 -18 -116 -21 -125 -4 -15 -24 -193 -31 -275 -11 -113
-11 -476 -1 -482 12 -7 113 95 174 177 72 96 157 277 177 380 3 14 7 36 10 50
22 98 23 308 2 405 -38 175 -46 200 -115 345 -49 103 -80 158 -115 204 -14 19
-26 39 -26 44 0 6 -4 12 -8 14 -4 2 -29 30 -56 63 -46 57 -134 155 -139 155
-2 0 -3 -60 -2 -132z"/>
<path d="M7280 7250 c-17 -11 -100 -37 -145 -45 -16 -2 -41 -7 -55 -10 -58
-11 -151 -21 -305 -30 -237 -15 -353 -28 -450 -50 -225 -51 -383 -162 -484
-339 l-22 -39 71 7 c39 4 81 9 93 12 12 3 38 7 57 10 41 5 50 7 155 28 97 19
110 22 318 72 48 11 59 13 53 6 -4 -4 -11 -7 -14 -7 -4 0 -11 -3 -17 -6 -8 -5
-164 -59 -185 -64 -3 -1 -12 -4 -20 -8 -40 -15 -188 -59 -309 -91 -73 -19
-135 -37 -137 -39 -2 -2 11 -11 28 -19 126 -60 195 -76 330 -73 119 2 151 7
208 29 19 8 40 15 45 16 47 12 170 72 230 113 61 42 181 133 220 167 73 63
355 349 355 360 0 12 -1 12 -20 0z"/>
<path d="M7275 6993 c-117 -40 -156 -170 -76 -256 102 -111 291 -60 308 83 14
123 -109 216 -232 173z"/>
<path d="M5608 6523 c-48 -14 -117 -78 -119 -111 -1 -9 -3 -30 -4 -47 -3 -44
30 -101 75 -131 31 -21 52 -27 100 -27 51 -1 66 4 103 29 73 52 94 133 53 212
-33 64 -129 98 -208 75z"/>
<path d="M7210 6493 c-19 -8 -66 -26 -105 -40 -38 -14 -81 -30 -95 -36 -14 -5
-29 -11 -35 -13 -25 -6 -155 -54 -198 -73 -26 -11 -51 -21 -55 -22 -72 -15
-293 -142 -371 -213 -42 -40 -102 -119 -130 -175 -40 -77 -83 -231 -65 -231 5
0 29 19 55 43 73 68 148 129 249 204 114 84 350 236 357 229 3 -2 -6 -10 -18
-17 -13 -7 -29 -17 -36 -23 -7 -6 -18 -15 -25 -21 -8 -5 -43 -32 -78 -60 -36
-27 -67 -52 -70 -55 -3 -3 -34 -29 -70 -59 -70 -58 -290 -275 -290 -285 0 -9
125 -5 190 6 30 5 67 11 81 13 14 2 52 13 85 25 32 12 69 24 81 27 12 3 28 11
34 19 6 8 16 14 21 14 21 0 151 93 207 147 70 69 151 175 188 246 28 54 91
194 91 203 0 2 10 36 22 74 12 39 20 74 18 79 -2 5 -19 3 -38 -6z"/>
<path d="M6188 6322 c-6 -14 -103 -80 -163 -110 -74 -39 -171 -81 -250 -111
-33 -13 -69 -27 -80 -32 -11 -5 -69 -27 -130 -50 -119 -44 -134 -50 -273 -115
-209 -98 -382 -242 -455 -381 -33 -63 -35 -71 -17 -66 11 3 20 9 20 13 0 10
297 160 395 200 44 17 89 36 100 41 46 21 275 97 270 89 -3 -5 -27 -16 -53
-26 -59 -23 -317 -151 -397 -199 -33 -19 -72 -41 -87 -47 -16 -7 -28 -16 -28
-20 0 -4 -7 -8 -15 -8 -8 0 -15 -4 -15 -10 0 -5 -4 -10 -9 -10 -5 0 -37 -19
-71 -42 l-62 -43 54 -11 c51 -11 301 -12 344 -1 12 3 37 8 56 11 19 3 73 19
121 36 358 126 629 430 747 838 10 34 15 62 10 62 -5 0 -10 -3 -12 -8z"/>
<path d="M8162 5973 c3 -10 -17 -65 -44 -118 -12 -22 -70 -114 -131 -204 -156
-233 -207 -352 -202 -467 1 -21 3 -51 4 -66 0 -16 4 -28 9 -28 4 1 22 33 41
73 31 65 98 185 111 197 3 3 18 25 34 50 16 24 40 56 54 70 l25 25 -20 -30
c-73 -108 -203 -386 -183 -393 13 -5 99 41 155 83 117 88 214 257 219 383 1
12 3 22 6 22 7 0 4 134 -4 190 -8 58 -55 208 -67 216 -5 3 -8 2 -7 -3z"/>
<path d="M7584 5803 c-133 -46 -158 -208 -43 -284 23 -16 51 -30 63 -30 12 -1
28 -2 36 -3 30 -3 103 23 127 46 36 34 55 86 50 137 -6 53 -31 89 -85 119 -50
28 -97 33 -148 15z"/>
<path d="M7174 5554 c-71 -86 -140 -173 -153 -193 -14 -20 -27 -38 -30 -41 -3
-3 -13 -18 -21 -35 -8 -16 -17 -32 -20 -35 -12 -11 -59 -128 -69 -169 -9 -42
-8 -178 1 -211 3 -8 8 -27 13 -43 6 -22 10 -25 21 -16 8 6 11 15 8 20 -3 5 -1
9 4 9 6 0 17 17 26 38 9 20 20 44 26 52 31 50 170 377 162 384 -3 4 0 6 7 6
13 0 4 -53 -11 -58 -4 -2 -6 -7 -3 -12 4 -7 -5 -43 -22 -90 -3 -8 -8 -24 -10
-35 -1 -11 -7 -29 -12 -40 -5 -11 -19 -49 -31 -85 -12 -36 -26 -74 -31 -85
-10 -23 -37 -90 -50 -123 -9 -22 -9 -22 24 -6 60 32 110 74 173 147 32 36 92
164 109 232 31 119 36 175 35 330 -2 174 -4 215 -11 215 -3 0 -64 -70 -135
-156z"/>
<path d="M8595 5418 c-60 -43 -168 -120 -240 -170 -148 -106 -314 -266 -363
-350 -52 -88 -82 -187 -87 -283 -2 -47 0 -85 4 -85 8 0 135 135 217 230 22 25
41 47 44 50 5 5 104 126 118 145 31 42 95 123 122 155 15 18 14 14 -4 -15 -14
-22 -40 -65 -58 -95 -17 -30 -35 -56 -40 -58 -4 -2 -8 -10 -8 -18 0 -8 -4 -14
-10 -14 -5 0 -10 -5 -10 -11 0 -19 -158 -241 -267 -375 -18 -23 -33 -44 -33
-47 0 -23 225 73 295 126 78 59 225 233 225 266 0 5 3 11 8 13 6 3 62 111 62
121 0 3 8 22 17 43 9 22 17 41 18 44 1 3 5 14 9 25 18 46 26 74 46 150 12 44
22 85 24 90 11 41 27 127 24 133 -2 5 -52 -27 -113 -70z"/>
<path d="M6462 5273 c-44 -63 -127 -247 -117 -263 3 -5 2 -11 -3 -14 -21 -13
-21 -289 0 -302 4 -3 8 -13 8 -22 1 -20 35 -90 72 -147 28 -44 126 -140 134
-132 7 7 11 137 4 137 -3 0 -5 28 -6 63 0 73 -13 202 -21 222 -3 8 0 15 6 15
6 0 12 -7 12 -15 1 -8 2 -18 3 -22 16 -69 37 -165 41 -188 13 -65 15 -82 19
-130 2 -27 7 -49 12 -49 15 3 63 99 79 159 33 132 5 251 -123 515 -41 85 -76
161 -78 169 -6 30 -22 32 -42 4z m75 -425 c-3 -8 -6 -5 -6 6 -1 11 2 17 5 13
3 -3 4 -12 1 -19z"/>
<path d="M7686 5138 c-22 -36 -130 -146 -196 -200 -25 -20 -94 -75 -155 -123
-102 -82 -201 -174 -251 -236 -68 -83 -115 -234 -107 -340 2 -24 5 -54 5 -66
1 -13 7 -23 13 -23 20 0 235 217 400 405 47 52 10 -6 -82 -132 -87 -119 -129
-174 -188 -243 -59 -68 -60 -70 -33 -64 12 2 39 7 58 10 45 8 150 47 187 70
149 95 240 236 304 474 19 69 34 151 44 235 4 28 8 60 10 72 7 41 17 193 13
193 -2 0 -12 -14 -22 -32z"/>
<path d="M5157 5094 c-1 -1 -31 -4 -67 -8 -36 -3 -81 -8 -100 -12 -44 -8 -181
-53 -196 -65 -6 -5 -13 -7 -16 -4 -3 3 -10 -1 -17 -8 -9 -12 3 -19 67 -42 42
-15 96 -32 120 -38 23 -6 42 -13 42 -17 0 -3 11 -7 26 -8 14 -1 33 -6 43 -11
10 -6 29 -12 42 -14 13 -3 44 -10 69 -17 25 -7 52 -13 60 -15 8 -2 33 -8 55
-13 22 -6 54 -13 70 -16 26 -4 121 -22 165 -31 8 -2 23 -4 33 -4 9 -1 17 -6
17 -12 0 -7 -7 -8 -17 -4 -10 3 -43 8 -73 11 -30 2 -71 6 -90 9 -19 2 -62 7
-95 11 -33 3 -69 8 -80 11 -11 2 -33 6 -50 9 -26 4 -83 15 -150 28 -69 14
-177 40 -216 53 -25 8 -52 15 -60 16 -8 2 -20 6 -26 10 -26 16 -12 -9 30 -53
60 -65 140 -122 232 -168 84 -42 263 -102 302 -102 12 0 25 -5 28 -10 4 -6 10
-8 14 -6 3 3 40 -2 81 -10 41 -8 93 -16 115 -18 22 -2 51 -6 65 -9 14 -3 54
-9 90 -12 36 -3 74 -8 85 -10 11 -2 40 -7 65 -10 25 -3 56 -7 70 -9 14 -2 48
-8 75 -12 28 -4 52 -8 55 -9 3 0 30 -7 60 -14 74 -17 170 -51 197 -68 44 -29
32 8 -38 113 -82 122 -235 282 -344 359 -105 75 -269 155 -367 181 -5 1 -9 2
-10 4 -2 1 -10 3 -18 5 -8 2 -35 8 -60 14 -68 15 -272 34 -283 25z m467 -332
c3 -5 -1 -9 -9 -9 -8 0 -12 4 -9 9 3 4 7 8 9 8 2 0 6 -4 9 -8z"/>
<path d="M8471 4525 c-61 -49 -246 -143 -451 -230 -298 -127 -466 -235 -568
-367 -39 -52 -94 -149 -87 -156 2 -2 48 24 104 57 55 34 117 69 138 79 21 9
40 19 43 22 7 8 277 131 295 135 6 1 23 7 38 13 47 20 55 12 9 -8 -23 -11 -46
-20 -50 -20 -4 -1 -14 -7 -22 -14 -8 -6 -40 -25 -70 -41 -120 -62 -420 -259
-420 -275 0 -19 202 -25 285 -9 28 5 62 12 78 14 15 3 53 15 85 27 31 12 59
23 62 24 12 3 78 36 112 57 94 55 192 143 256 227 15 19 34 43 43 53 9 10 25
35 35 55 11 20 21 39 24 42 16 14 87 187 101 245 0 2 7 28 15 57 7 29 14 54
14 56 0 9 -22 -5 -69 -43z"/>
<path d="M5127 4434 c-1 -1 -29 -4 -62 -7 -275 -23 -549 -194 -657 -409 -29
-58 -61 -151 -50 -145 4 3 36 19 72 37 152 76 318 179 435 273 l50 39 -55 -53
c-102 -100 -275 -231 -407 -309 -40 -23 -73 -45 -73 -47 0 -14 171 8 245 31
109 33 331 176 455 293 69 64 251 195 319 229 74 37 75 38 46 45 -54 15 -307
33 -318 23z"/>
<path d="M5710 4219 c-113 -10 -187 -21 -265 -40 -22 -5 -47 -11 -56 -13 -183
-44 -376 -172 -508 -336 -20 -25 -39 -46 -43 -48 -5 -2 -8 -8 -8 -14 0 -5 -9
-21 -20 -35 -11 -15 -19 -28 -16 -30 2 -2 37 9 77 25 77 31 313 112 339 117 8
2 56 15 105 28 84 24 322 79 390 91 17 3 46 8 65 12 19 3 46 8 60 9 14 2 25 4
25 5 0 1 12 4 28 6 15 3 27 0 27 -6 0 -5 -3 -9 -7 -8 -8 2 -23 -2 -208 -53
-60 -17 -114 -32 -120 -33 -5 -2 -17 -5 -25 -8 -8 -3 -82 -29 -165 -58 -223
-77 -515 -202 -515 -220 0 -12 237 -84 315 -95 139 -20 288 -24 385 -10 30 4
64 9 75 10 43 6 153 37 220 63 39 14 72 27 75 27 16 3 165 84 225 123 154 99
328 262 459 429 25 32 46 60 46 63 0 7 -873 7 -960 -1z m230 -219 c0 -5 -5
-10 -11 -10 -5 0 -7 5 -4 10 3 6 8 10 11 10 2 0 4 -4 4 -10z"/>
<path d="M7700 3531 c-15 -9 -136 -35 -212 -45 -46 -7 -230 -15 -503 -21 -219
-6 -234 -7 -407 -29 -135 -18 -365 -116 -442 -189 -20 -19 -37 -32 -40 -30 -2
2 -6 -3 -9 -11 -4 -11 0 -14 16 -10 12 2 38 7 57 10 19 4 44 8 55 10 51 10
111 16 270 30 110 9 445 11 445 2 0 -4 -15 -8 -32 -9 -18 0 -53 -2 -78 -4
-137 -12 -177 -16 -201 -20 -14 -3 -45 -7 -70 -9 -24 -3 -44 -5 -44 -6 0 -1
-9 -3 -20 -5 -11 -1 -38 -5 -60 -9 -41 -6 -73 -12 -112 -21 -13 -3 -33 -7 -45
-10 -19 -4 -59 -13 -90 -21 -5 -1 -11 -3 -15 -4 -10 -3 -26 -7 -38 -8 -16 -3
54 -45 130 -79 136 -61 262 -86 435 -86 124 1 188 11 320 50 210 62 397 178
570 352 132 133 186 210 120 172z"/>
<path d="M5068 3225 c-2 -2 -25 -6 -53 -9 -58 -8 -118 -22 -158 -38 -35 -14
-21 -24 45 -33 26 -4 51 -11 54 -16 3 -5 9 -7 14 -4 5 3 19 1 32 -4 13 -5 57
-20 98 -32 88 -26 307 -103 366 -130 22 -10 63 -27 90 -38 69 -27 204 -91 204
-96 0 -5 -30 5 -182 59 -71 24 -128 43 -128 41 0 -2 -16 3 -36 11 -32 13 -216
64 -284 78 -14 3 -56 12 -95 21 -38 8 -83 17 -100 20 -16 2 -30 4 -30 5 0 1
-17 3 -37 6 -21 3 -38 1 -38 -3 0 -4 22 -37 49 -73 124 -164 321 -305 526
-375 48 -16 60 -19 106 -30 11 -2 30 -7 41 -11 84 -26 411 -39 498 -20 14 3
43 8 65 11 56 8 67 10 90 18 11 3 32 8 46 11 95 16 445 159 433 177 -2 4 -12
6 -22 4 -17 -3 -125 15 -197 34 -72 18 -215 70 -320 116 -16 7 -102 43 -190
80 -88 37 -174 73 -190 80 -29 13 -180 65 -200 69 -5 1 -14 4 -20 8 -8 5 -108
29 -180 44 -60 12 -289 27 -297 19z m727 -415 c3 -6 -1 -7 -9 -4 -18 7 -21 14
-7 14 6 0 13 -4 16 -10z"/>
</g>
</svg>
