<svg width="20" height="20" viewBox="0 0 20 20" fill="none" xmlns="http://www.w3.org/2000/svg">
<path d="M5.6748 15.6292H14.3195C15.6818 15.6292 16.3912 14.926 16.3912 13.5826V5.94235C16.3912 4.59888 15.6818 3.89575 14.3195 3.89575H5.6748C4.31878 3.89575 3.60938 4.5926 3.60938 5.94235V13.5826C3.60938 14.926 4.31878 15.6292 5.6748 15.6292ZM5.66853 14.3798C5.14746 14.3798 4.85868 14.1099 4.85868 13.5574V7.78177C4.85868 7.22932 5.14746 6.95937 5.66853 6.95937H14.3258C14.8468 6.95937 15.1356 7.22932 15.1356 7.78177V13.5574C15.1356 14.1099 14.8468 14.3798 14.3258 14.3798H5.66853ZM8.78864 9.12524H9.15904C9.38504 9.12524 9.46038 9.05619 9.46038 8.83646V8.46606C9.46038 8.24006 9.38504 8.171 9.15904 8.171H8.78864C8.56264 8.171 8.4873 8.24006 8.4873 8.46606V8.83646C8.4873 9.05619 8.56264 9.12524 8.78864 9.12524ZM10.8415 9.12524H11.2119C11.4316 9.12524 11.507 9.05619 11.507 8.83646V8.46606C11.507 8.24006 11.4316 8.171 11.2119 8.171H10.8415C10.6155 8.171 10.5402 8.24006 10.5402 8.46606V8.83646C10.5402 9.05619 10.6155 9.12524 10.8415 9.12524ZM12.8881 9.12524H13.2585C13.4845 9.12524 13.5598 9.05619 13.5598 8.83646V8.46606C13.5598 8.24006 13.4845 8.171 13.2585 8.171H12.8881C12.6684 8.171 12.5931 8.24006 12.5931 8.46606V8.83646C12.5931 9.05619 12.6684 9.12524 12.8881 9.12524ZM6.74205 11.1467H7.10617C7.33217 11.1467 7.40751 11.0777 7.40751 10.8517V10.4813C7.40751 10.2615 7.33217 10.1925 7.10617 10.1925H6.74205C6.51604 10.1925 6.44071 10.2615 6.44071 10.4813V10.8517C6.44071 11.0777 6.51604 11.1467 6.74205 11.1467ZM8.78864 11.1467H9.15904C9.38504 11.1467 9.46038 11.0777 9.46038 10.8517V10.4813C9.46038 10.2615 9.38504 10.1925 9.15904 10.1925H8.78864C8.56264 10.1925 8.4873 10.2615 8.4873 10.4813V10.8517C8.4873 11.0777 8.56264 11.1467 8.78864 11.1467ZM10.8415 11.1467H11.2119C11.4316 11.1467 11.507 11.0777 11.507 10.8517V10.4813C11.507 10.2615 11.4316 10.1925 11.2119 10.1925H10.8415C10.6155 10.1925 10.5402 10.2615 10.5402 10.4813V10.8517C10.5402 11.0777 10.6155 11.1467 10.8415 11.1467ZM12.8881 11.1467H13.2585C13.4845 11.1467 13.5598 11.0777 13.5598 10.8517V10.4813C13.5598 10.2615 13.4845 10.1925 13.2585 10.1925H12.8881C12.6684 10.1925 12.5931 10.2615 12.5931 10.4813V10.8517C12.5931 11.0777 12.6684 11.1467 12.8881 11.1467ZM6.74205 13.1619H7.10617C7.33217 13.1619 7.40751 13.0929 7.40751 12.8732V12.5028C7.40751 12.2768 7.33217 12.2077 7.10617 12.2077H6.74205C6.51604 12.2077 6.44071 12.2768 6.44071 12.5028V12.8732C6.44071 13.0929 6.51604 13.1619 6.74205 13.1619ZM8.78864 13.1619H9.15904C9.38504 13.1619 9.46038 13.0929 9.46038 12.8732V12.5028C9.46038 12.2768 9.38504 12.2077 9.15904 12.2077H8.78864C8.56264 12.2077 8.4873 12.2768 8.4873 12.5028V12.8732C8.4873 13.0929 8.56264 13.1619 8.78864 13.1619ZM10.8415 13.1619H11.2119C11.4316 13.1619 11.507 13.0929 11.507 12.8732V12.5028C11.507 12.2768 11.4316 12.2077 11.2119 12.2077H10.8415C10.6155 12.2077 10.5402 12.2768 10.5402 12.5028V12.8732C10.5402 13.0929 10.6155 13.1619 10.8415 13.1619Z" fill="#007A82"/>
</svg>
