<svg width="20" height="20" viewBox="0 0 20 20" fill="none" xmlns="http://www.w3.org/2000/svg">
<path d="M4.12988 7.22956H5.37919V6.05559C5.37919 5.44664 5.69936 5.1453 6.27693 5.1453H7.44462V3.896H6.19531C4.83929 3.896 4.12988 4.59284 4.12988 5.94259V7.22956ZM8.36747 5.1453H11.6257V3.896H8.36747V5.1453ZM14.614 7.22956H15.8633V5.94259C15.8633 4.59912 15.1539 3.896 13.7979 3.896H12.5485V5.1453H13.7162C14.2875 5.1453 14.614 5.44664 14.614 6.05559V7.22956ZM14.614 11.373H15.8633V8.15241H14.614V11.373ZM4.12988 11.373H5.37919V8.15241H4.12988V11.373ZM12.5485 15.6294H13.7979C15.1539 15.6294 15.8633 14.9263 15.8633 13.5828V12.2896H14.614V13.4698C14.614 14.0788 14.2875 14.3801 13.7162 14.3801H12.5485V15.6294ZM6.19531 15.6294H7.44462V14.3801H6.27693C5.69936 14.3801 5.37919 14.0788 5.37919 13.4698V12.2896H4.12988V13.5828C4.12988 14.9263 4.83929 15.6294 6.19531 15.6294ZM8.36747 15.6294H11.6257V14.3801H8.36747V15.6294Z" fill="#007A82"/>
</svg>
