<svg width="24" height="24" viewBox="0 0 24 24" fill="none" xmlns="http://www.w3.org/2000/svg">
<path d="M6.01074 18.333H18.1622C19.6162 18.333 20.46 17.4893 20.46 15.8771V7.55259C20.46 5.94043 19.6087 5.09668 17.9814 5.09668H5.82994C4.37598 5.09668 3.53223 5.9329 3.53223 7.55259V15.8771C3.53223 17.4893 4.38351 18.333 6.01074 18.333ZM11.1486 11.9747L5.6642 6.55064C5.76967 6.52804 5.89021 6.51297 6.01828 6.51297H17.9739C18.1095 6.51297 18.2301 6.52804 18.3431 6.55818L12.8662 11.9747C12.5498 12.2836 12.2861 12.4192 12.0074 12.4192C11.7287 12.4192 11.465 12.2761 11.1486 11.9747ZM4.94099 7.65806L9.0392 11.6885L4.94099 15.7415V7.65806ZM14.9756 11.6885L19.0512 7.68066V15.7264L14.9756 11.6885ZM6.01828 16.9092C5.88267 16.9092 5.7546 16.8941 5.6416 16.8715L9.95829 12.5925L10.3651 12.9993C10.915 13.5342 11.4424 13.7602 12.0074 13.7602C12.5649 13.7602 13.0997 13.5342 13.6422 12.9993L14.0565 12.5925L18.3657 16.864C18.2451 16.8941 18.117 16.9092 17.9739 16.9092H6.01828Z" fill="#007A82"/>
</svg>
