<svg width="24" height="24" viewBox="0 0 24 24" fill="none" xmlns="http://www.w3.org/2000/svg">
<mask id="path-1-outside-1_969_903" maskUnits="userSpaceOnUse" x="4.14258" y="1.57129" width="15" height="20" fill="black">
<rect fill="white" x="4.14258" y="1.57129" width="15" height="20"/>
<path fill-rule="evenodd" clip-rule="evenodd" d="M10.6818 20.651C10.6853 20.6558 10.6888 20.6604 10.6924 20.6651C10.6925 20.6653 10.6926 20.6654 10.6928 20.6656C11.0396 21.1216 11.6081 21.3126 12.1355 21.1995C12.3295 21.1579 12.5178 21.0751 12.6876 20.9493C12.8011 20.8652 12.9017 20.7646 12.9858 20.6511C16.6787 15.6679 18.5251 11.8717 18.5251 9.26256C18.5251 5.56324 15.5332 2.57129 11.8338 2.57129C8.13453 2.57129 5.14258 5.56324 5.14258 9.26256C5.14258 11.8716 6.98884 15.6676 10.6814 20.6504C10.6815 20.6506 10.6817 20.6508 10.6818 20.651ZM11.736 19.8718C11.7767 19.9252 11.8529 19.9362 11.907 19.8961C11.9168 19.8889 11.9254 19.8803 11.9326 19.8705C13.751 17.4167 15.0858 15.2933 15.9614 13.4932C16.8453 11.6759 17.2142 10.2826 17.2142 9.26256C17.2142 6.28726 14.8091 3.88223 11.8338 3.88223C8.85854 3.88223 6.45352 6.28726 6.45352 9.26256C6.45352 10.2826 6.82237 11.6759 7.70628 13.4932C8.58185 15.2933 9.91668 17.4167 11.7351 19.8705M8.13317 9.26256C8.13317 7.21941 9.7907 5.56188 11.8338 5.56188C13.877 5.56188 15.5345 7.21941 15.5345 9.26256C15.5345 11.3057 13.877 12.9632 11.8338 12.9632C9.7907 12.9632 8.13317 11.3057 8.13317 9.26256ZM11.8338 6.87282C10.5147 6.87282 9.44411 7.94342 9.44411 9.26256C9.44411 10.5817 10.5147 11.6523 11.8338 11.6523C13.153 11.6523 14.2236 10.5817 14.2236 9.26256C14.2236 7.94342 13.153 6.87282 11.8338 6.87282Z"/>
</mask>
<path fill-rule="evenodd" clip-rule="evenodd" d="M10.6818 20.651C10.6853 20.6558 10.6888 20.6604 10.6924 20.6651C10.6925 20.6653 10.6926 20.6654 10.6928 20.6656C11.0396 21.1216 11.6081 21.3126 12.1355 21.1995C12.3295 21.1579 12.5178 21.0751 12.6876 20.9493C12.8011 20.8652 12.9017 20.7646 12.9858 20.6511C16.6787 15.6679 18.5251 11.8717 18.5251 9.26256C18.5251 5.56324 15.5332 2.57129 11.8338 2.57129C8.13453 2.57129 5.14258 5.56324 5.14258 9.26256C5.14258 11.8716 6.98884 15.6676 10.6814 20.6504C10.6815 20.6506 10.6817 20.6508 10.6818 20.651ZM11.736 19.8718C11.7767 19.9252 11.8529 19.9362 11.907 19.8961C11.9168 19.8889 11.9254 19.8803 11.9326 19.8705C13.751 17.4167 15.0858 15.2933 15.9614 13.4932C16.8453 11.6759 17.2142 10.2826 17.2142 9.26256C17.2142 6.28726 14.8091 3.88223 11.8338 3.88223C8.85854 3.88223 6.45352 6.28726 6.45352 9.26256C6.45352 10.2826 6.82237 11.6759 7.70628 13.4932C8.58185 15.2933 9.91668 17.4167 11.7351 19.8705M8.13317 9.26256C8.13317 7.21941 9.7907 5.56188 11.8338 5.56188C13.877 5.56188 15.5345 7.21941 15.5345 9.26256C15.5345 11.3057 13.877 12.9632 11.8338 12.9632C9.7907 12.9632 8.13317 11.3057 8.13317 9.26256ZM11.8338 6.87282C10.5147 6.87282 9.44411 7.94342 9.44411 9.26256C9.44411 10.5817 10.5147 11.6523 11.8338 11.6523C13.153 11.6523 14.2236 10.5817 14.2236 9.26256C14.2236 7.94342 13.153 6.87282 11.8338 6.87282Z" fill="#007A82"/>
<path d="M11.6949 19.9003L11.6959 19.9016L11.7762 19.842L11.7753 19.8408L11.6949 19.9003ZM10.6818 20.651L10.6015 20.7106L10.6015 20.7106L10.6818 20.651ZM10.6924 20.6651L10.772 20.6046L10.772 20.6046L10.6924 20.6651ZM10.6928 20.6656L10.6131 20.7261L10.6132 20.7262L10.6928 20.6656ZM12.1355 21.1995L12.1565 21.2972L12.1355 21.1995ZM12.6876 20.9493L12.628 20.869L12.6876 20.9493ZM12.9858 20.6511L12.9055 20.5915L12.9858 20.6511ZM10.6814 20.6504L10.7617 20.5909L10.7617 20.5909L10.6814 20.6504ZM11.907 19.8961L11.8475 19.8157L11.8475 19.8158L11.907 19.8961ZM11.9326 19.8705L12.0129 19.9301L12.0129 19.9301L11.9326 19.8705ZM15.9614 13.4932L15.8715 13.4494L15.9614 13.4932ZM7.70628 13.4932L7.79621 13.4494L7.70628 13.4932ZM10.6015 20.7106C10.6052 20.7155 10.6089 20.7205 10.6127 20.7256L10.772 20.6046C10.7688 20.6003 10.7655 20.596 10.7622 20.5915L10.6015 20.7106ZM10.6127 20.7255C10.6128 20.7257 10.6129 20.7258 10.613 20.7259C10.6131 20.726 10.6131 20.726 10.6131 20.7261L10.7724 20.6052C10.7723 20.605 10.7722 20.6049 10.7722 20.6048C10.7721 20.6047 10.7721 20.6047 10.772 20.6046L10.6127 20.7255ZM10.6132 20.7262C10.9843 21.2141 11.5926 21.4182 12.1565 21.2972L12.1146 21.1017C11.6237 21.207 11.0949 21.0292 10.7724 20.6051L10.6132 20.7262ZM12.1565 21.2972C12.3641 21.2527 12.5657 21.1641 12.7471 21.0297L12.628 20.869C12.47 20.9861 12.2948 21.063 12.1146 21.1017L12.1565 21.2972ZM12.7471 21.0297C12.8686 20.9396 12.9761 20.8321 13.0662 20.7106L12.9055 20.5915C12.8272 20.6972 12.7337 20.7907 12.628 20.869L12.7471 21.0297ZM13.0662 20.7106C14.9147 18.2161 16.3034 16.0159 17.2302 14.1103C18.1564 12.2061 18.6251 10.5889 18.6251 9.26256H18.4251C18.4251 10.5454 17.9706 12.1309 17.0504 14.0228C16.1308 15.9134 14.7498 18.1028 12.9055 20.5915L13.0662 20.7106ZM18.6251 9.26256C18.6251 5.50801 15.5884 2.47129 11.8338 2.47129V2.67129C15.4779 2.67129 18.4251 5.61847 18.4251 9.26256H18.6251ZM11.8338 2.47129C8.0793 2.47129 5.04258 5.50801 5.04258 9.26256H5.24258C5.24258 5.61847 8.18976 2.67129 11.8338 2.67129V2.47129ZM5.04258 9.26256C5.04258 10.5888 5.51122 12.2059 6.43735 14.1101C7.36412 16.0155 8.75263 18.2157 10.601 20.71L10.7617 20.5909C8.91759 18.1024 7.5367 15.9131 6.6172 14.0226C5.69707 12.1308 5.24258 10.5454 5.24258 9.26256H5.04258ZM10.601 20.7099L10.6015 20.7106L10.7622 20.5915L10.7617 20.5909L10.601 20.7099ZM11.8475 19.8158C11.8374 19.8232 11.8232 19.8212 11.8156 19.8113L11.6564 19.9323C11.7302 20.0293 11.8684 20.0492 11.9666 19.9764L11.8475 19.8158ZM11.8522 19.811C11.8509 19.8128 11.8493 19.8144 11.8475 19.8157L11.9666 19.9764C11.9842 19.9634 11.9998 19.9477 12.0129 19.9301L11.8522 19.811ZM15.8715 13.4494C14.9996 15.2421 13.6685 17.3601 11.8522 19.811L12.0129 19.9301C13.8335 17.4734 15.1721 15.3445 16.0513 13.5369L15.8715 13.4494ZM17.1142 9.26256C17.1142 10.2609 16.7524 11.6383 15.8715 13.4494L16.0513 13.5369C16.9382 11.7135 17.3142 10.3043 17.3142 9.26256H17.1142ZM11.8338 3.98223C14.7539 3.98223 17.1142 6.34248 17.1142 9.26256H17.3142C17.3142 6.23203 14.8644 3.78223 11.8338 3.78223V3.98223ZM6.55352 9.26256C6.55352 6.34248 8.91377 3.98223 11.8338 3.98223V3.78223C8.80332 3.78223 6.35352 6.23203 6.35352 9.26256H6.55352ZM7.79621 13.4494C6.91529 11.6383 6.55352 10.2609 6.55352 9.26256H6.35352C6.35352 10.3043 6.72945 11.7135 7.61636 13.5369L7.79621 13.4494ZM11.8154 19.811C9.99916 17.3601 8.66814 15.2421 7.79621 13.4494L7.61636 13.5369C8.49555 15.3445 9.8342 17.4734 11.6548 19.9301L11.8154 19.811ZM11.8338 5.46188C9.73547 5.46188 8.03316 7.16418 8.03316 9.26256H8.23317C8.23317 7.27464 9.84593 5.66188 11.8338 5.66188V5.46188ZM15.6345 9.26256C15.6345 7.16418 13.9322 5.46188 11.8338 5.46188V5.66188C13.8218 5.66188 15.4345 7.27464 15.4345 9.26256H15.6345ZM11.8338 13.0632C13.9322 13.0632 15.6345 11.3609 15.6345 9.26256H15.4345C15.4345 11.2505 13.8218 12.8632 11.8338 12.8632V13.0632ZM8.03316 9.26256C8.03316 11.3609 9.73547 13.0632 11.8338 13.0632V12.8632C9.84593 12.8632 8.23317 11.2505 8.23317 9.26256H8.03316ZM9.54411 9.26256C9.54411 7.99865 10.5699 6.97282 11.8338 6.97282V6.77282C10.4595 6.77282 9.34411 7.88819 9.34411 9.26256H9.54411ZM11.8338 11.5523C10.5699 11.5523 9.54411 10.5265 9.54411 9.26256H9.34411C9.34411 10.6369 10.4595 11.7523 11.8338 11.7523V11.5523ZM14.1236 9.26256C14.1236 10.5265 13.0978 11.5523 11.8338 11.5523V11.7523C13.2082 11.7523 14.3236 10.6369 14.3236 9.26256H14.1236ZM11.8338 6.97282C13.0978 6.97282 14.1236 7.99865 14.1236 9.26256H14.3236C14.3236 7.88819 13.2082 6.77282 11.8338 6.77282V6.97282Z" fill="#007A82" mask="url(#path-1-outside-1_969_903)"/>
</svg>
