<svg width="24" height="24" viewBox="0 0 24 24" fill="none" xmlns="http://www.w3.org/2000/svg">
<path d="M15.6542 19.2219C16.9725 19.2219 17.869 18.8452 18.6826 17.9638C18.7354 17.9035 18.7881 17.8357 18.8408 17.7754C19.2853 17.2782 19.5038 16.7584 19.5038 16.2763C19.5038 15.7113 19.2024 15.199 18.5319 14.7394L16.287 13.1725C15.5788 12.6828 14.7577 12.6451 14.1249 13.278L13.5674 13.8354C13.3715 14.0313 13.1832 14.0464 12.9572 13.8882C12.5504 13.617 11.7819 12.9389 11.2546 12.4116C10.7197 11.8767 10.1773 11.274 9.88351 10.8145C9.72531 10.581 9.74037 10.4002 9.93624 10.2043L10.4937 9.64681C11.1265 9.014 11.0889 8.19285 10.5917 7.4847L8.99456 5.20206C8.55008 4.55418 8.01521 4.25284 7.4502 4.24531C6.96805 4.23777 6.45578 4.45624 5.95857 4.89319C5.8983 4.94592 5.83803 4.99865 5.77776 5.05139C4.88128 5.87254 4.49707 6.75396 4.49707 8.12505C4.49707 10.3474 5.7853 12.9691 8.29395 15.4627C10.7875 17.9412 13.379 19.2219 15.6542 19.2219ZM15.6542 17.9638C13.7331 17.9939 11.345 16.6304 9.2507 14.5511C7.14132 12.4719 5.74009 9.99335 5.77023 8.07231C5.7853 7.26623 6.07157 6.55808 6.63658 6.06087C6.69685 6.01567 6.74205 5.97801 6.80232 5.93281C7.01325 5.752 7.23926 5.65407 7.4502 5.65407C7.66867 5.65407 7.86454 5.74447 8.01521 5.97047L9.42397 8.08738C9.60477 8.34352 9.6123 8.63733 9.34863 8.89346L8.74595 9.48861C8.17341 10.0461 8.22614 10.7015 8.58775 11.2138C8.99456 11.7788 9.75544 12.6451 10.3958 13.278C11.0813 13.956 12.0155 14.7922 12.5579 15.1839C13.0702 15.5455 13.7256 15.5983 14.2831 15.0257L14.8782 14.423C15.1268 14.1594 15.4206 14.1669 15.6843 14.3402L17.7635 15.7263C17.9971 15.877 18.0799 16.0653 18.0799 16.2838C18.0799 16.4947 17.982 16.7208 17.8012 16.9392C17.756 16.992 17.7183 17.0372 17.6731 17.0974C17.1759 17.67 16.4678 17.9562 15.6542 17.9638Z" fill="#007A82"/>
</svg>
