<svg width="20" height="20" viewBox="0 0 20 20" fill="none" xmlns="http://www.w3.org/2000/svg">
<path d="M6.01981 12.6347H9.37221V15.6105C9.37221 16.4831 9.82422 17.3808 10 17.3808C10.1695 17.3808 10.6215 16.4831 10.6215 15.6105V12.6347H13.9802C14.5766 12.6347 14.9595 12.2581 14.9595 11.6868C14.9595 10.3307 13.886 8.99983 12.2412 8.34065L12.0403 5.36492C12.8502 4.83758 13.591 4.24745 13.9111 3.83311C14.0806 3.60711 14.1622 3.3811 14.1622 3.18021C14.1622 2.76587 13.8484 2.45825 13.3712 2.45825H6.62249C6.15165 2.45825 5.83147 2.76587 5.83147 3.18021C5.83147 3.3811 5.91309 3.60711 6.08259 3.83311C6.40276 4.24745 7.14983 4.83758 7.9534 5.36492L7.75251 8.34065C6.11398 8.99983 5.03418 10.3307 5.03418 11.6868C5.03418 12.2581 5.42341 12.6347 6.01981 12.6347ZM10 7.91375C9.61705 7.91375 9.24665 7.95142 8.89509 8.01419L9.08343 4.86269C9.0897 4.75596 9.07087 4.70574 8.98926 4.66807C8.14802 4.2349 7.49512 3.73267 7.38839 3.58827C7.33817 3.51922 7.38212 3.46272 7.45117 3.46272H12.5426C12.6116 3.46272 12.6556 3.51922 12.6053 3.58827C12.4986 3.73267 11.8457 4.2349 11.0045 4.66807C10.9229 4.70574 10.904 4.75596 10.9103 4.86269L11.0986 8.01419C10.7471 7.95142 10.3767 7.91375 10 7.91375ZM6.30859 11.5612C6.18304 11.5612 6.12653 11.4922 6.15165 11.3415C6.30232 10.2177 7.7839 8.95588 10 8.95588C12.2098 8.95588 13.6914 10.2177 13.8484 11.3415C13.8672 11.4922 13.8107 11.5612 13.6851 11.5612H6.30859Z" fill="#007A82"/>
</svg>
