<svg width="36" height="36" viewBox="0 0 36 36" fill="none" xmlns="http://www.w3.org/2000/svg">
<path d="M13.1257 24.2515L17.9999 19.3774L22.8741 24.2515C23.3695 24.7469 24.1925 24.7549 24.6959 24.2515C25.1993 23.7481 25.1913 22.9251 24.6959 22.4297L19.8218 17.5555L24.6959 12.6813C25.1913 12.1859 25.1993 11.3629 24.6959 10.8595C24.1925 10.3561 23.3695 10.3641 22.8741 10.8595L17.9999 15.7337L13.1257 10.8595C12.6303 10.3641 11.8073 10.3561 11.3039 10.8595C10.8005 11.3629 10.8085 12.1859 11.3039 12.6813L16.1781 17.5555L11.3039 22.4297C10.8085 22.9251 10.8005 23.7481 11.3039 24.2515C11.8073 24.7549 12.6303 24.7469 13.1257 24.2515Z" fill="#232323"/>
</svg>
