<svg width="16" height="17" viewBox="0 0 16 17" fill="none" xmlns="http://www.w3.org/2000/svg">
<path d="M10.5645 8.49979C10.5594 8.32401 10.4941 8.16329 10.3535 8.03271L6.44615 4.21575C6.33566 4.10526 6.19503 4.04499 6.0293 4.04499C5.69782 4.04499 5.43164 4.30615 5.43164 4.63762C5.43164 4.79834 5.49693 4.95403 5.61244 5.06954L9.13309 8.49477L5.61244 11.93C5.50195 12.0455 5.43164 12.1962 5.43164 12.362C5.43164 12.6934 5.69782 12.9546 6.0293 12.9546C6.19503 12.9546 6.33566 12.8943 6.44615 12.7838L10.3535 8.96184C10.4941 8.82624 10.5645 8.67557 10.5645 8.49979Z" fill="#007A82"/>
</svg>
