<svg width="16" height="16" viewBox="0 0 16 16" fill="none" xmlns="http://www.w3.org/2000/svg">
<path fill-rule="evenodd" clip-rule="evenodd" d="M7.87207 15.0769C3.92643 15.0769 0.666992 11.8175 0.666992 7.87183C0.666992 3.92619 3.9209 0.666748 7.86654 0.666748C11.8122 0.666748 15.0771 3.92619 15.0771 7.87183C15.0771 11.8175 11.8177 15.0769 7.87207 15.0769ZM6.98665 11.491C7.19141 11.491 7.36849 11.3969 7.5013 11.1921L11.2201 5.36499C11.3031 5.24325 11.375 5.09383 11.375 4.96102C11.375 4.66772 11.1149 4.48511 10.8438 4.48511C10.6833 4.48511 10.5228 4.57918 10.401 4.76733L6.95898 10.2403L5.12728 7.94377C4.9834 7.76115 4.83398 7.69474 4.6569 7.69474C4.38574 7.69474 4.15885 7.91056 4.15885 8.20386C4.15885 8.3422 4.21419 8.49162 4.30827 8.60783L6.44434 11.1977C6.61589 11.408 6.7819 11.491 6.98665 11.491Z" fill="#007A82"/>
</svg>
