<svg xmlns="http://www.w3.org/2000/svg" xmlns:xlink="http://www.w3.org/1999/xlink">
    <symbol id="video" viewBox="0 0 20 20">
        <path d="M5.11579 15.0015H11.6448C13.2582 15.0015 14.1936 14.0912 14.1936 12.5091V11.7558L16.4474 13.6643C16.7425 13.9154 17.0501 14.0849 17.3514 14.0849C17.9227 14.0849 18.3182 13.6706 18.3182 13.049V6.48863C18.3182 5.86712 17.9227 5.45278 17.3514 5.45278C17.0501 5.45278 16.7425 5.62228 16.4474 5.86712L14.1936 7.78188V6.99714C14.1936 5.41511 13.2582 4.49854 11.6448 4.49854H5.11579C3.55887 4.49854 2.57324 5.41511 2.57324 6.99714V12.5531C2.57324 14.1288 3.50237 15.0015 5.11579 15.0015ZM5.32296 13.8714C4.34361 13.8714 3.78488 13.3441 3.78488 12.3271V7.1792C3.78488 6.14335 4.34361 5.63484 5.32296 5.63484H11.4376C12.417 5.63484 12.9757 6.1559 12.9757 7.1792V12.3271C12.9757 13.3441 12.4107 13.8714 11.4376 13.8714H5.32296ZM16.9182 12.6347L14.1936 10.406V9.13163L16.9182 6.90297C16.9747 6.85903 17.0124 6.83391 17.0626 6.83391C17.1317 6.83391 17.1694 6.88414 17.1694 6.97203V12.5656C17.1694 12.6473 17.1317 12.7038 17.0626 12.7038C17.0124 12.7038 16.9747 12.6724 16.9182 12.6347Z"/>
    </symbol>
    <symbol id="clock" viewBox="0 0 20 20">
        <path d="M9.9933 16.2444C13.5529 16.2444 16.4909 13.3064 16.4909 9.75307C16.4909 6.19978 13.5466 3.26172 9.98703 3.26172C6.43373 3.26172 3.50195 6.19978 3.50195 9.75307C3.50195 13.3064 6.44001 16.2444 9.9933 16.2444ZM9.9933 14.9512C7.11175 14.9512 4.80776 12.6346 4.80776 9.75307C4.80776 6.87151 7.11175 4.56124 9.98703 4.56124C12.8686 4.56124 15.1851 6.87151 15.1914 9.75307C15.1977 12.6346 12.8749 14.9512 9.9933 14.9512ZM6.82924 10.5441H9.98703C10.2758 10.5441 10.4955 10.3244 10.4955 10.0419V5.9361C10.4955 5.6536 10.2758 5.43387 9.98703 5.43387C9.7108 5.43387 9.49107 5.6536 9.49107 5.9361V9.53962H6.82924C6.54674 9.53962 6.32701 9.75935 6.32701 10.0419C6.32701 10.3244 6.54674 10.5441 6.82924 10.5441Z"/>
    </symbol>
    <symbol id="pin" viewBox="0 0 20 20">
        <path d="M6.01981 12.6347H9.37221V15.6105C9.37221 16.4831 9.82422 17.3808 10 17.3808C10.1695 17.3808 10.6215 16.4831 10.6215 15.6105V12.6347H13.9802C14.5766 12.6347 14.9595 12.2581 14.9595 11.6868C14.9595 10.3307 13.886 8.99983 12.2412 8.34065L12.0403 5.36492C12.8502 4.83758 13.591 4.24745 13.9111 3.83311C14.0806 3.60711 14.1622 3.3811 14.1622 3.18021C14.1622 2.76587 13.8484 2.45825 13.3712 2.45825H6.62249C6.15165 2.45825 5.83147 2.76587 5.83147 3.18021C5.83147 3.3811 5.91309 3.60711 6.08259 3.83311C6.40276 4.24745 7.14983 4.83758 7.9534 5.36492L7.75251 8.34065C6.11398 8.99983 5.03418 10.3307 5.03418 11.6868C5.03418 12.2581 5.42341 12.6347 6.01981 12.6347ZM10 7.91375C9.61705 7.91375 9.24665 7.95142 8.89509 8.01419L9.08343 4.86269C9.0897 4.75596 9.07087 4.70574 8.98926 4.66807C8.14802 4.2349 7.49512 3.73267 7.38839 3.58827C7.33817 3.51922 7.38212 3.46272 7.45117 3.46272H12.5426C12.6116 3.46272 12.6556 3.51922 12.6053 3.58827C12.4986 3.73267 11.8457 4.2349 11.0045 4.66807C10.9229 4.70574 10.904 4.75596 10.9103 4.86269L11.0986 8.01419C10.7471 7.95142 10.3767 7.91375 10 7.91375ZM6.30859 11.5612C6.18304 11.5612 6.12653 11.4922 6.15165 11.3415C6.30232 10.2177 7.7839 8.95588 10 8.95588C12.2098 8.95588 13.6914 10.2177 13.8484 11.3415C13.8672 11.4922 13.8107 11.5612 13.6851 11.5612H6.30859Z"/>
    </symbol>
    <symbol id="calendar" viewBox="0 0 20 20">
        <path d="M5.6748 15.6292H14.3195C15.6818 15.6292 16.3912 14.926 16.3912 13.5826V5.94235C16.3912 4.59888 15.6818 3.89575 14.3195 3.89575H5.6748C4.31878 3.89575 3.60938 4.5926 3.60938 5.94235V13.5826C3.60938 14.926 4.31878 15.6292 5.6748 15.6292ZM5.66853 14.3798C5.14746 14.3798 4.85868 14.1099 4.85868 13.5574V7.78177C4.85868 7.22932 5.14746 6.95937 5.66853 6.95937H14.3258C14.8468 6.95937 15.1356 7.22932 15.1356 7.78177V13.5574C15.1356 14.1099 14.8468 14.3798 14.3258 14.3798H5.66853ZM8.78864 9.12524H9.15904C9.38504 9.12524 9.46038 9.05619 9.46038 8.83646V8.46606C9.46038 8.24006 9.38504 8.171 9.15904 8.171H8.78864C8.56264 8.171 8.4873 8.24006 8.4873 8.46606V8.83646C8.4873 9.05619 8.56264 9.12524 8.78864 9.12524ZM10.8415 9.12524H11.2119C11.4316 9.12524 11.507 9.05619 11.507 8.83646V8.46606C11.507 8.24006 11.4316 8.171 11.2119 8.171H10.8415C10.6155 8.171 10.5402 8.24006 10.5402 8.46606V8.83646C10.5402 9.05619 10.6155 9.12524 10.8415 9.12524ZM12.8881 9.12524H13.2585C13.4845 9.12524 13.5598 9.05619 13.5598 8.83646V8.46606C13.5598 8.24006 13.4845 8.171 13.2585 8.171H12.8881C12.6684 8.171 12.5931 8.24006 12.5931 8.46606V8.83646C12.5931 9.05619 12.6684 9.12524 12.8881 9.12524ZM6.74205 11.1467H7.10617C7.33217 11.1467 7.40751 11.0777 7.40751 10.8517V10.4813C7.40751 10.2615 7.33217 10.1925 7.10617 10.1925H6.74205C6.51604 10.1925 6.44071 10.2615 6.44071 10.4813V10.8517C6.44071 11.0777 6.51604 11.1467 6.74205 11.1467ZM8.78864 11.1467H9.15904C9.38504 11.1467 9.46038 11.0777 9.46038 10.8517V10.4813C9.46038 10.2615 9.38504 10.1925 9.15904 10.1925H8.78864C8.56264 10.1925 8.4873 10.2615 8.4873 10.4813V10.8517C8.4873 11.0777 8.56264 11.1467 8.78864 11.1467ZM10.8415 11.1467H11.2119C11.4316 11.1467 11.507 11.0777 11.507 10.8517V10.4813C11.507 10.2615 11.4316 10.1925 11.2119 10.1925H10.8415C10.6155 10.1925 10.5402 10.2615 10.5402 10.4813V10.8517C10.5402 11.0777 10.6155 11.1467 10.8415 11.1467ZM12.8881 11.1467H13.2585C13.4845 11.1467 13.5598 11.0777 13.5598 10.8517V10.4813C13.5598 10.2615 13.4845 10.1925 13.2585 10.1925H12.8881C12.6684 10.1925 12.5931 10.2615 12.5931 10.4813V10.8517C12.5931 11.0777 12.6684 11.1467 12.8881 11.1467ZM6.74205 13.1619H7.10617C7.33217 13.1619 7.40751 13.0929 7.40751 12.8732V12.5028C7.40751 12.2768 7.33217 12.2077 7.10617 12.2077H6.74205C6.51604 12.2077 6.44071 12.2768 6.44071 12.5028V12.8732C6.44071 13.0929 6.51604 13.1619 6.74205 13.1619ZM8.78864 13.1619H9.15904C9.38504 13.1619 9.46038 13.0929 9.46038 12.8732V12.5028C9.46038 12.2768 9.38504 12.2077 9.15904 12.2077H8.78864C8.56264 12.2077 8.4873 12.2768 8.4873 12.5028V12.8732C8.4873 13.0929 8.56264 13.1619 8.78864 13.1619ZM10.8415 13.1619H11.2119C11.4316 13.1619 11.507 13.0929 11.507 12.8732V12.5028C11.507 12.2768 11.4316 12.2077 11.2119 12.2077H10.8415C10.6155 12.2077 10.5402 12.2768 10.5402 12.5028V12.8732C10.5402 13.0929 10.6155 13.1619 10.8415 13.1619Z"/>
    </symbol>
</svg>