<svg xmlns="http://www.w3.org/2000/svg" xmlns:xlink="http://www.w3.org/1999/xlink">
    <symbol id="dashed" viewBox="0 0 20 20">
        <path d="M4.12988 7.22956H5.37919V6.05559C5.37919 5.44664 5.69936 5.1453 6.27693 5.1453H7.44462V3.896H6.19531C4.83929 3.896 4.12988 4.59284 4.12988 5.94259V7.22956ZM8.36747 5.1453H11.6257V3.896H8.36747V5.1453ZM14.614 7.22956H15.8633V5.94259C15.8633 4.59912 15.1539 3.896 13.7979 3.896H12.5485V5.1453H13.7162C14.2875 5.1453 14.614 5.44664 14.614 6.05559V7.22956ZM14.614 11.373H15.8633V8.15241H14.614V11.373ZM4.12988 11.373H5.37919V8.15241H4.12988V11.373ZM12.5485 15.6294H13.7979C15.1539 15.6294 15.8633 14.9263 15.8633 13.5828V12.2896H14.614V13.4698C14.614 14.0788 14.2875 14.3801 13.7162 14.3801H12.5485V15.6294ZM6.19531 15.6294H7.44462V14.3801H6.27693C5.69936 14.3801 5.37919 14.0788 5.37919 13.4698V12.2896H4.12988V13.5828C4.12988 14.9263 4.83929 15.6294 6.19531 15.6294ZM8.36747 15.6294H11.6257V14.3801H8.36747V15.6294Z"/>
    </symbol>
    <symbol id="persons" viewBox="0 0 20 20">
        <path d="M13.2773 9.81585C14.7966 9.81585 16.0271 8.47865 16.0271 6.83384C16.0271 5.21415 14.8029 3.9209 13.2773 3.9209C11.7706 3.9209 10.5276 5.23298 10.5276 6.8464C10.5339 8.48493 11.7644 9.81585 13.2773 9.81585ZM6.00126 9.96024C7.32589 9.96024 8.39314 8.78627 8.39314 7.33608C8.39314 5.92355 7.32589 4.78097 6.00126 4.78097C4.68917 4.78097 3.6031 5.94238 3.60938 7.34235C3.60938 8.79255 4.6829 9.96024 6.00126 9.96024ZM13.2773 8.71722C12.411 8.71722 11.6765 7.90109 11.6765 6.84012C11.6765 5.81682 12.4047 5.01953 13.2773 5.01953C14.1563 5.01953 14.8782 5.80427 14.8782 6.83384C14.8782 7.88853 14.15 8.71722 13.2773 8.71722ZM6.00126 8.87416C5.29185 8.87416 4.68917 8.19615 4.68917 7.34235C4.68917 6.52623 5.28558 5.86077 6.00126 5.86077C6.72949 5.86077 7.31962 6.51367 7.31962 7.33608C7.31962 8.19615 6.71694 8.87416 6.00126 8.87416ZM2.54841 15.7296H7.42634C7.08106 15.5287 6.84877 15.0705 6.89272 14.6561H2.49191C2.37263 14.6561 2.32241 14.5996 2.32241 14.4929C2.32241 13.0552 4.00488 11.6867 5.99498 11.6867C6.6981 11.6867 7.40123 11.8624 7.94113 12.1638C8.15458 11.8562 8.41825 11.5925 8.76353 11.3665C7.96624 10.8768 6.97433 10.6131 5.99498 10.6131C3.33943 10.6131 1.19238 12.5091 1.19238 14.5933C1.19238 15.3467 1.64439 15.7296 2.54841 15.7296ZM9.36621 15.7296H17.1885C18.2746 15.7296 18.8019 15.3843 18.8019 14.6436C18.8019 12.9171 16.6423 10.6194 13.2773 10.6194C9.91239 10.6194 7.75279 12.9171 7.75279 14.6436C7.75279 15.3843 8.28013 15.7296 9.36621 15.7296ZM9.16532 14.631C9.02093 14.631 8.96443 14.5808 8.96443 14.4678C8.96443 13.5073 10.5151 11.7181 13.2773 11.7181C16.0396 11.7181 17.5903 13.5073 17.5903 14.4678C17.5903 14.5808 17.5338 14.631 17.3831 14.631H9.16532Z"/>
    </symbol>
</svg>