<svg width="20" height="20" viewBox="0 0 20 20" fill="none" xmlns="http://www.w3.org/2000/svg">
<path d="M5.11579 15.0015H11.6448C13.2582 15.0015 14.1936 14.0912 14.1936 12.5091V11.7558L16.4474 13.6643C16.7425 13.9154 17.0501 14.0849 17.3514 14.0849C17.9227 14.0849 18.3182 13.6706 18.3182 13.049V6.48863C18.3182 5.86712 17.9227 5.45278 17.3514 5.45278C17.0501 5.45278 16.7425 5.62228 16.4474 5.86712L14.1936 7.78188V6.99714C14.1936 5.41511 13.2582 4.49854 11.6448 4.49854H5.11579C3.55887 4.49854 2.57324 5.41511 2.57324 6.99714V12.5531C2.57324 14.1288 3.50237 15.0015 5.11579 15.0015ZM5.32296 13.8714C4.34361 13.8714 3.78488 13.3441 3.78488 12.3271V7.1792C3.78488 6.14335 4.34361 5.63484 5.32296 5.63484H11.4376C12.417 5.63484 12.9757 6.1559 12.9757 7.1792V12.3271C12.9757 13.3441 12.4107 13.8714 11.4376 13.8714H5.32296ZM16.9182 12.6347L14.1936 10.406V9.13163L16.9182 6.90297C16.9747 6.85903 17.0124 6.83391 17.0626 6.83391C17.1317 6.83391 17.1694 6.88414 17.1694 6.97203V12.5656C17.1694 12.6473 17.1317 12.7038 17.0626 12.7038C17.0124 12.7038 16.9747 12.6724 16.9182 12.6347Z" fill="#007A82"/>
</svg>
