<svg width="28" height="29" viewBox="0 0 28 29" fill="none" xmlns="http://www.w3.org/2000/svg">
<path d="M19.6514 14.1543C19.6426 13.8467 19.5283 13.583 19.291 13.3457L12.4531 6.65723C12.251 6.46387 12.0137 6.3584 11.7236 6.3584C11.1348 6.3584 10.6777 6.81543 10.6777 7.4043C10.6777 7.68555 10.792 7.94922 10.9941 8.15137L17.1465 14.1543L10.9941 20.1572C10.792 20.3594 10.6777 20.6143 10.6777 20.9043C10.6777 21.4932 11.1348 21.9502 11.7236 21.9502C12.0049 21.9502 12.251 21.8447 12.4531 21.6514L19.291 14.9541C19.5371 14.7256 19.6514 14.4619 19.6514 14.1543Z" fill="white"/>
</svg>
